<?xml version="1.0" encoding="utf-8"?>
<!-- Generator: Adobe Illustrator 24.0.1, SVG Export Plug-In . SVG Version: 6.00 Build 0)  -->
<svg version="1.1" id="Capa_1" xmlns="http://www.w3.org/2000/svg" xmlns:xlink="http://www.w3.org/1999/xlink" x="0px" y="0px"
	 viewBox="0 0 612.8 612.8" style="enable-background:new 0 0 612.8 612.8;" xml:space="preserve">
<style type="text/css">
	.st01{fill:#BED8E2;}
	.st-11{fill:#0AC18E;}
	.st22{fill:#00976D;}
	.st33{fill:#FFFFFF;}
	.st44{fill:#86B6C9;}
	.st55{fill:#005354;}
	.st66{fill:#00382E;}
	.st77{fill:#8AE2C9;}
</style>
<g>
	<path class="st01" d="M531.3,506.8c-13,0-23.5-10.5-23.5-23.5V424c0-6.4-2.8-12.4-7.6-16.6c-4.8-4.2-11.3-6.1-17.6-5.2l-17.7,2.6
		c-1.1,0.2-2.1-0.6-2.3-1.7c-0.2-1.1,0.6-2.1,1.7-2.3l17.7-2.6c7.5-1.1,15.1,1.1,20.8,6.1c5.7,4.9,9,12.1,9,19.6v59.3
		c0,10.8,8.7,19.5,19.5,19.5s19.5-8.7,19.5-19.5V311.8c0-32.3-15.8-62.7-42.2-81.3l-20-14.1c-0.9-0.6-1.1-1.9-0.5-2.8
		c0.6-0.9,1.9-1.1,2.8-0.5l20,14.1c27.5,19.3,43.8,50.9,43.8,84.5v171.5C554.8,496.3,544.3,506.8,531.3,506.8z"/>
</g>
<g>
	<path class="st01" d="M142.3,507c-21-0.1-38.1-17.2-38.1-38.2v-47.5c0-1.1,0.9-2,2-2s2,0.9,2,2v47.5c0,18.8,15.3,34.1,34.1,34.2
		c12.4,0,25.3,0,35.9-0.2l31.5-0.4c22.6-0.3,40.9-18.9,40.9-41.5c0-23.5,17.7-43,41.1-45.3l35.3-3.4c1.1-0.1,2.1,0.7,2.2,1.8
		c0.1,1.1-0.7,2.1-1.8,2.2l-35.3,3.4c-21.4,2.1-37.5,19.9-37.5,41.3c0,24.8-20.1,45.2-44.9,45.5l-31.5,0.4
		C167.6,507,154.7,507,142.3,507z"/>
</g>
<g>
	<path class="st01" d="M123.9,320.6c-0.2,0-0.4,0-0.6-0.1c-1-0.3-1.6-1.5-1.3-2.5l52.7-159.7l303.4,49.5c1.1,0.2,1.8,1.2,1.7,2.3
		c-0.2,1.1-1.2,1.8-2.3,1.7l-300-48.9l-51.7,156.5C125.5,320.1,124.7,320.6,123.9,320.6z"/>
</g>
<g>
	<g>
		<path class="st-11" d="M106.1,423.2H104c-4.7,0-8.5-3.8-8.5-8.5c0-2-1.4-3.8-3.4-4.4c-3.5-0.9-6.9-2.3-10.1-4
			c-0.6-0.3-1.2-0.6-1.7-0.9c-1.7-1-4-0.7-5.5,0.7c-3.4,3.3-8.8,3.3-12,0l-1.5-1.5c-3.3-3.4-3.3-8.8,0-12c1.5-1.5,1.8-3.7,0.8-5.4
			c-2.2-3.9-3.9-8-5-12.2c-0.5-1.9-2.2-3.2-4.3-3.2c-4.7,0-8.5-3.8-8.5-8.5v-2.1c0-4.7,3.8-8.5,8.5-8.5c2,0,3.8-1.4,4.4-3.4
			c0.9-3.5,2.3-6.9,4-10.1c0.3-0.6,0.6-1.2,0.9-1.7c1-1.7,0.7-4-0.7-5.5c-3.3-3.4-3.3-8.8,0-12l1.5-1.5c3.4-3.3,8.8-3.3,12,0
			c1.5,1.5,3.7,1.8,5.4,0.8c3.9-2.2,8-3.9,12.2-5c1.9-0.5,3.2-2.2,3.2-4.3c0-4.7,3.8-8.5,8.5-8.5h2.1c4.7,0,8.5,3.8,8.5,8.5
			c0,2,1.4,3.8,3.4,4.4c3.5,0.9,6.9,2.3,10.1,4c0.6,0.3,1.2,0.6,1.7,0.9c1.7,1,4,0.7,5.5-0.7c3.4-3.3,8.8-3.3,12,0l1.5,1.5
			c3.3,3.4,3.3,8.8,0,12c-1.5,1.5-1.8,3.7-0.8,5.4c2.2,3.9,3.9,8,5,12.2c0.5,1.9,2.2,3.2,4.3,3.2c4.7,0,8.5,3.8,8.5,8.5v2.1
			c0,4.7-3.8,8.5-8.5,8.5c-2,0-3.8,1.4-4.4,3.4c-0.9,3.5-2.3,6.9-4,10.1c-0.3,0.6-0.6,1.1-0.9,1.7c-1,1.7-0.7,4,0.7,5.5
			c3.3,3.4,3.3,8.8,0,12l-1.5,1.5c-3.4,3.3-8.8,3.3-12,0c-1.5-1.5-3.7-1.8-5.4-0.8c-3.9,2.2-8,3.9-12.2,5c-1.9,0.5-3.2,2.2-3.2,4.3
			C114.6,419.4,110.8,423.2,106.1,423.2z M78,400.8c1.5,0,3,0.4,4.3,1.2c0.4,0.3,0.9,0.5,1.2,0.7l0.2,0.1c3,1.6,6.2,2.9,9.4,3.7
			c3.8,1.1,6.4,4.4,6.4,8.2c0,2.5,2,4.5,4.5,4.5h2.1c2.5,0,4.5-2,4.5-4.5c0-3.9,2.6-7.2,6.2-8.1c3.9-1,7.7-2.6,11.2-4.6
			c3.2-1.9,7.4-1.4,10.2,1.4c1.7,1.7,4.6,1.7,6.4,0l1.5-1.5c1.7-1.7,1.7-4.6,0-6.4c-2.7-2.7-3.2-7-1.3-10.3c0.3-0.4,0.5-0.9,0.7-1.2
			l0.1-0.2c1.6-3,2.9-6.2,3.7-9.4c1-3.8,4.4-6.4,8.2-6.4c2.5,0,4.5-2,4.5-4.5v-2.1c0-2.5-2-4.5-4.5-4.5c-3.9,0-7.2-2.6-8.1-6.2
			c-1-3.9-2.6-7.7-4.6-11.2c-1.9-3.2-1.4-7.4,1.4-10.2c1.7-1.7,1.7-4.6,0-6.4l-1.5-1.5c-1.7-1.7-4.6-1.7-6.4,0
			c-2.7,2.7-7,3.2-10.3,1.3c-0.4-0.3-0.9-0.5-1.2-0.7l-0.2-0.1c-3-1.6-6.2-2.9-9.4-3.7c-3.8-1.1-6.4-4.4-6.4-8.2
			c0-2.5-2-4.5-4.5-4.5h-2.1c-2.5,0-4.5,2-4.5,4.5c0,3.9-2.6,7.2-6.2,8.1c-3.9,1-7.7,2.6-11.2,4.6c-3.2,1.9-7.4,1.4-10.2-1.4
			c-1.7-1.7-4.6-1.7-6.4,0l-1.5,1.5c-1.7,1.7-1.7,4.6,0,6.4c2.7,2.7,3.2,7,1.3,10.3c-0.3,0.4-0.5,0.9-0.7,1.2l-0.1,0.2
			c-1.6,3-2.9,6.2-3.7,9.4c-1.1,3.8-4.4,6.4-8.2,6.4c-2.5,0-4.5,2-4.5,4.5v2.1c0,2.5,2,4.5,4.5,4.5c3.9,0,7.2,2.6,8.1,6.2
			c1,3.9,2.6,7.7,4.6,11.2c1.9,3.2,1.4,7.4-1.4,10.2c-1.7,1.7-1.7,4.6,0,6.4l1.5,1.5c1.7,1.7,4.6,1.7,6.4,0
			C73.6,401.7,75.8,400.8,78,400.8z"/>
	</g>
	<g>
		<g>
			<path class="st-11" d="M105.1,387.2c-13.6,0-24.7-11.1-24.7-24.7s11.1-24.7,24.7-24.7s24.7,11.1,24.7,24.7S118.7,387.2,105.1,387.2
				z M105.1,341.8c-11.4,0-20.7,9.3-20.7,20.7s9.3,20.7,20.7,20.7s20.7-9.3,20.7-20.7S116.5,341.8,105.1,341.8z"/>
		</g>
	</g>
</g>
<g>
	<g>
		<circle class="st22" cx="475.9" cy="222.8" r="51.6"/>
	</g>
	<g>
		<polyline class="st22" points="423.1,226.6 427.6,241.1 525.4,208.4 521,194.5 423.9,226.7 		"/>
	</g>
	<g>
		<circle class="st-11" cx="473.1" cy="213.7" r="51.6"/>
	</g>
	<g id="vhrj0A_12_">
		<g>
			<g>
				<path class="st33" d="M458.7,191.4c0.6-1.9,1.3-3.9,1.9-5.8c0.1,0,0.2,0.1,0.4,0.1c3.4,1.1,6.8,2.2,10.2,3.3
					c0.4,0.1,0.4,0.1,0.5-0.3c0.9-2.7,1.7-5.3,2.6-8c0.1-0.4,0.1-0.4,0.5-0.2c1.4,0.5,2.9,0.9,4.3,1.4h0.1c0.2,0,0.3,0.2,0.2,0.4
					c0,0.1-0.1,0.2-0.1,0.3c-0.9,2.6-1.7,5.2-2.6,7.9c-0.1,0.3-0.1,0.3,0.2,0.4c1.4,0.4,2.7,0.9,4.1,1.3c0.4,0.1,0.4,0.1,0.6-0.3
					c0.9-2.6,1.7-5.3,2.6-7.9c0.1-0.3,0.1-0.3,0.5-0.2c1.4,0.5,2.8,0.9,4.3,1.4c0.4,0.1,0.4,0.1,0.3,0.5c-0.9,2.7-1.7,5.3-2.6,8
					c-0.1,0.3-0.1,0.3,0.2,0.4c1.4,0.5,2.8,1.1,4,1.9c4.3,2.8,6.3,6.7,5.8,11.9c-0.2,2.1-1.2,3.8-2.9,5c-1.2,0.8-2.4,1.5-3.8,2
					c-0.3,0.1-0.3,0.1-0.1,0.3c0.8,0.9,1.6,1.8,2.4,2.7c1,1.4,1.8,2.9,2,4.7c0.1,1.2,0,2.5-0.3,3.7c-0.5,2.3-1.6,4.3-3.4,5.9
					c-2.1,2-4.7,3.1-7.5,3.5c-3.1,0.5-6.2,0.1-9.1-0.8c-0.6-0.2-0.6-0.2-0.9,0.4c-0.8,2.6-1.7,5.1-2.5,7.7c0,0.1-0.1,0.2-0.1,0.4
					c-1.7-0.5-3.3-1.1-5-1.6c0-0.1,0.1-0.2,0.1-0.4c0.9-2.7,1.7-5.3,2.6-8c0.1-0.3,0.1-0.3-0.2-0.4c-1.4-0.5-2.8-0.9-4.2-1.4
					c-0.3-0.1-0.3-0.1-0.4,0.2c-0.9,2.7-1.7,5.3-2.6,8c0,0.1-0.1,0.2-0.1,0.4c-1.7-0.5-3.3-1.1-5-1.6c0-0.1,0.1-0.2,0.1-0.4
					c0.9-2.6,1.7-5.3,2.6-7.9c0.1-0.4,0.1-0.4-0.3-0.5c-3.4-1.1-6.8-2.2-10.2-3.3c-0.1,0-0.2-0.1-0.4-0.1c0-0.1,0-0.1,0.1-0.2
					c0-0.1,0.1-0.1,0.1-0.2c1-1.7,2.1-3.5,3.1-5.3c0.1-0.2,0.3-0.3,0.5-0.2c1.6,0.5,3.2,1.1,4.8,1.6c0.3,0.1,0.4,0.1,0.5-0.2
					c3-9.2,6-18.5,9-27.7c0.1-0.3,0.1-0.3-0.2-0.4c-2.1-0.7-4.2-1.4-6.3-2C458.9,191.5,458.8,191.4,458.7,191.4z M467.4,218.9
					c-0.6,1.9-1.2,3.8-1.9,5.8c-0.1,0.3-0.1,0.3,0.2,0.4c2.7,0.9,5.5,1.8,8.2,2.7c1,0.3,2.1,0.5,3.2,0.5c1.5,0,2.9-0.3,4.1-1.3
					c1.2-0.9,1.8-2.2,2.1-3.7c0.4-2-0.1-3.8-1.5-5.3c-1.2-1.2-2.6-1.9-4.2-2.5c-2.7-0.9-5.4-1.8-8.1-2.6c-0.3-0.1-0.3-0.1-0.4,0.2
					C468.7,215.1,468,217,467.4,218.9z M472.9,202.1c-0.6,1.7-1.1,3.5-1.7,5.2c-0.1,0.3-0.1,0.3,0.2,0.4c2.1,0.7,4.2,1.4,6.4,2.1
					c0.9,0.3,1.8,0.4,2.8,0.4c2.3-0.1,4.2-1.1,5.1-3.3c0.8-1.8,0.7-3.6-0.5-5.2c-1-1.5-2.5-2.3-4.1-2.9c-2-0.7-4.1-1.3-6.1-2
					c-0.3-0.1-0.3-0.1-0.5,0.2C474,198.6,473.4,200.4,472.9,202.1z"/>
			</g>
		</g>
	</g>
</g>
<g>
	<g>
		<path class="st22" d="M236.4,356.2L236.4,356.2c-10.4-10.4-10.4-27.4,0-37.8l58.9-58.9c10.4-10.4,27.4-10.4,37.8,0l0,0
			c10.4,10.4,10.4,27.4,0,37.8l-58.9,58.9C263.7,366.6,246.8,366.6,236.4,356.2z"/>
	</g>
	<g>
		<path class="st44" d="M251,303.8l-44.3,44.3c-10.4,10.4-10.4,27.4,0,37.8s27.4,10.4,37.8,0l44.3-44.3L251,303.8z"/>
	</g>
	<g>
		<path class="st55" d="M299.2,331.8c-0.3,0-0.5-0.1-0.7-0.3l-37.6-37.6c-0.4-0.4-0.4-1,0-1.4s1-0.4,1.4,0l37.6,37.6
			c0.4,0.4,0.4,1,0,1.4C299.7,331.7,299.5,331.8,299.2,331.8z"/>
	</g>
</g>
<g>
	<circle class="st44" cx="329.9" cy="174.3" r="8"/>
</g>
<g>
	<polygon class="st66" points="317.5,138.9 338.1,137.7 345.7,144.3 342,171.8 328,174.7 326,165.3 321.6,158 	"/>
</g>
<g>
	<rect x="313.7" y="454.3" class="st55" width="144.9" height="34.1"/>
</g>
<g>
	<path class="st22" d="M461.5,458l7.1-114.9l10.7-95.9l-24.1-24.8c-88.6,0-150.5,30.9-150.5,30.9l-13.9,41.3l9.6,43.3l9,125
		C344,474.8,447.4,473.5,461.5,458z"/>
</g>
<g>
	<g>
		<path class="st22" d="M532.1,326.7L532.1,326.7c-10.4,10.4-27.4,10.4-37.8,0l-58.9-58.9c-10.4-10.4-10.4-27.4,0-37.8l0,0
			c10.4-10.4,27.4-10.4,37.8,0l58.9,58.9C542.6,299.3,542.6,316.2,532.1,326.7z"/>
	</g>
	<g>
		<path class="st44" d="M479.7,312.1l44.3,44.3c10.4,10.4,27.4,10.4,37.8,0c10.4-10.4,10.4-27.4,0-37.8l-44.3-44.3L479.7,312.1z"/>
	</g>
	<g>
		<path class="st55" d="M469.1,302.5c-0.3,0-0.5-0.1-0.7-0.3c-0.4-0.4-0.4-1,0-1.4l37.6-37.6c0.4-0.4,1-0.4,1.4,0s0.4,1,0,1.4
			l-37.6,37.6C469.6,302.4,469.4,302.5,469.1,302.5z"/>
	</g>
</g>
<g>
	<path class="st44" d="M359.9,393.5L359.9,393.5c-2.1,11-12.5,18.5-23.6,17c-28.3-3.8-69-8.8-114.7-16.7
		c-14.6-2.5-24.2-16.5-21.4-31.1l0,0c2.8-14.5,17-23.9,31.4-20.9c45.2,9.6,85,20.1,112.7,27.1C355.2,371.7,362,382.4,359.9,393.5z"
		/>
</g>
<g>
	<path class="st44" d="M347.8,241.1c25.3,10.3,56.8-4.4,56.8-4.4l-3.9-51.4l-41.9,3.2L347.8,241.1z"/>
</g>
<g>
	<path class="st55" d="M358.8,188.6l38.8-3l0.4,5.7c1.4,18.5-12.4,34.7-30.9,36.1l0,0c-5.6,0.4-11-0.5-15.8-2.6L358.8,188.6z"/>
</g>
<g>
	<path class="st44" d="M374.4,222.8L374.4,222.8c18.2-3.8,29.8-21.6,26-39.8L389,129.2L323.3,143l11.3,53.8
		C338.4,215,356.2,226.6,374.4,222.8z"/>
</g>
<g>
	<polygon class="st66" points="373,132.3 393,128.2 400.1,132.8 396.5,160.3 385.1,162.7 383.1,153.3 376,146.5 	"/>
</g>
<g>
	<path class="st33" d="M378.6,162.9c-0.5,0-0.9-0.3-1-0.8c-0.1-0.5,0.2-1.1,0.8-1.2l11.2-2.4c0.5-0.1,1.1,0.2,1.2,0.8
		s-0.2,1.1-0.8,1.2l-11.2,2.4C378.7,162.9,378.7,162.9,378.6,162.9z"/>
</g>
<g>
	<g>
		<path class="st33" d="M358.1,166.2c0,0,4.2,3.7,8.2,2.9c4-0.9,6.4-5.9,6.4-5.9s-4.2-3.7-8.2-2.9S358.1,166.2,358.1,166.2z"/>
	</g>
	<g>
		<circle class="st55" cx="365.3" cy="165.6" r="3.7"/>
	</g>
	<g>
		<path class="st33" d="M333,171.5c0,0,4.2,3.7,8.2,2.9c4-0.9,6.4-5.9,6.4-5.9s-4.2-3.7-8.2-2.9C335.3,166.4,333,171.5,333,171.5z"/>
	</g>
	<g>
		<circle class="st55" cx="340.2" cy="170.9" r="3.7"/>
	</g>
	<g>
		<path class="st33" d="M364.5,196.8c-7.3,1.5-14.6-3.2-16.1-10.5l26.6-5.6C376.5,188.1,371.8,195.3,364.5,196.8z"/>
	</g>
</g>
<g>
	<circle class="st44" cx="395.6" cy="160.5" r="8"/>
</g>
<g>
	<polygon class="st66" points="353.8,148.3 369.1,145.1 368.7,143 352.9,144.1 	"/>
</g>
<g>
	<polygon class="st66" points="327,154 342.4,150.7 341.5,146.5 326.6,151.9 	"/>
</g>
<g>
	<g>
		<circle class="st22" cx="195.7" cy="196.9" r="86.8"/>
	</g>
	<g>
		<polyline class="st22" points="120.1,244 138.2,261.9 258,136.5 240.4,119.3 121.2,243.5 		"/>
	</g>
	<g>
		<g>
			<g id="SVGID_2_">
				<circle class="st-11" cx="184.3" cy="185.5" r="86.8"/>
			</g>
		</g>
	</g>
	<g id="vhrj0A_10_">
		<g>
			<g>
				<path class="st33" d="M145.4,163.6c-0.6-3.4-1.2-6.7-1.8-10.1c0.2,0,0.4-0.1,0.6-0.1c5.9-1,11.9-2.1,17.8-3.1
					c0.7-0.1,0.7-0.1,0.6-0.8c-0.8-4.6-1.6-9.3-2.4-13.9c-0.1-0.6-0.1-0.6,0.5-0.7c2.5-0.4,5-0.9,7.5-1.3c0.1,0,0.1,0,0.2,0
					c0.4-0.1,0.5,0,0.6,0.4c0,0.1,0,0.3,0.1,0.4c0.8,4.6,1.6,9.1,2.4,13.7c0.1,0.5,0.1,0.5,0.6,0.4c2.4-0.4,4.7-0.8,7.1-1.2
					c0.8-0.1,0.8-0.1,0.6-0.9c-0.8-4.6-1.6-9.2-2.4-13.8c-0.1-0.6-0.1-0.6,0.5-0.7c2.5-0.4,4.9-0.9,7.4-1.3c0.7-0.1,0.7-0.1,0.8,0.6
					c0.8,4.6,1.6,9.3,2.4,13.9c0.1,0.6,0.1,0.6,0.7,0.5c2.5-0.4,5-0.6,7.5-0.4c8.6,0.8,14.7,5,17.9,13.1c1.3,3.3,1.2,6.5-0.3,9.7
					c-1.1,2.2-2.4,4.1-4,5.9c-0.3,0.4-0.3,0.4,0.1,0.5c1.9,0.6,3.8,1.3,5.6,2.2c2.7,1.3,5,2.9,6.7,5.4c1.2,1.7,1.9,3.7,2.5,5.7
					c1,3.8,0.9,7.6-0.4,11.4c-1.6,4.6-4.6,8.3-8.5,11.2c-4.2,3.2-9.1,5-14.2,6c-1.1,0.2-1.1,0.2-0.9,1.3c0.8,4.5,1.5,8.9,2.3,13.4
					c0,0.2,0.1,0.4,0.1,0.6c-2.9,0.5-5.8,1-8.7,1.5c0-0.2-0.1-0.4-0.1-0.6c-0.8-4.6-1.6-9.3-2.4-13.9c-0.1-0.5-0.1-0.5-0.6-0.4
					c-2.4,0.4-4.8,0.8-7.3,1.3c-0.6,0.1-0.6,0.1-0.5,0.7c0.8,4.6,1.6,9.3,2.4,13.9c0,0.2,0.1,0.4,0.1,0.6c-2.9,0.5-5.8,1-8.7,1.5
					c0-0.2-0.1-0.4-0.1-0.6c-0.8-4.6-1.6-9.2-2.4-13.8c-0.1-0.7-0.1-0.7-0.8-0.5c-5.9,1-11.9,2.1-17.8,3.1c-0.2,0-0.4,0.1-0.6,0.1
					c0-0.1,0-0.2-0.1-0.3c0-0.1,0-0.3,0-0.4c0.2-3.4,0.4-6.8,0.5-10.3c0-0.4,0.2-0.6,0.6-0.7c2.8-0.5,5.6-1,8.4-1.5
					c0.6-0.1,0.6-0.1,0.5-0.7c-2.8-16.1-5.6-32.2-8.4-48.3c-0.1-0.6-0.1-0.6-0.7-0.5c-3.6,0.6-7.3,1.3-10.9,1.9
					C145.8,163.6,145.6,163.6,145.4,163.6z M180,197.7c0.6,3.3,1.2,6.7,1.7,10c0.1,0.6,0.1,0.6,0.7,0.5c4.8-0.8,9.5-1.6,14.3-2.5
					c1.8-0.3,3.6-0.9,5.2-1.7c2.3-1.2,4.1-2.7,5.2-5.1c1-2.3,1-4.7,0.3-7.2c-0.9-3.4-3.1-5.6-6.4-6.6c-2.7-0.9-5.4-0.8-8.2-0.4
					c-4.7,0.8-9.4,1.6-14.1,2.4c-0.6,0.1-0.6,0.1-0.5,0.7C178.8,191,179.4,194.4,180,197.7z M174.9,168.4c0.5,3,1,6,1.6,9
					c0.1,0.5,0.1,0.5,0.6,0.4c3.7-0.6,7.4-1.3,11.1-1.9c1.6-0.3,3-0.8,4.4-1.6c3.4-2,5.4-4.8,5.1-8.9c-0.3-3.3-1.8-5.9-4.8-7.4
					c-2.6-1.4-5.5-1.5-8.4-1.1c-3.5,0.6-7.1,1.2-10.6,1.8c-0.6,0.1-0.6,0.1-0.5,0.7C173.9,162.4,174.4,165.4,174.9,168.4z"/>
			</g>
		</g>
	</g>
	<g>
		<path class="st-11" d="M52.1,208.6H50c-5.1,0-9.2-4.1-9.2-9.2l0,0c0-5.1,4.1-9.2,9.2-9.2h2.1c5.1,0,9.2,4.1,9.2,9.2l0,0
			C61.4,204.4,57.2,208.6,52.1,208.6z"/>
	</g>
	<g>
		<g>
			<path class="st77" d="M76,191c-5.1,0-9.2,4.1-9.2,9.2s4.1,9.2,9.2,9.2h24.9c-1.7-5.9-2.8-12.1-3.2-18.5H76V191z"/>
		</g>
		<g>
			<path class="st55" d="M131.8,200.2c0-5.1-4.1-9.2-9.2-9.2H97.7c0.4,6.4,1.5,12.6,3.2,18.5h21.7
				C127.6,209.5,131.8,205.3,131.8,200.2z"/>
		</g>
	</g>
</g>
<g>
	<path class="st-11" d="M330.4,524.5h-62.5c-5.1,0-9.2-4.1-9.2-9.2l0,0c0-5.1,4.1-9.2,9.2-9.2h62.5c5.1,0,9.2,4.1,9.2,9.2l0,0
		C339.6,520.3,335.5,524.5,330.4,524.5z"/>
</g>
<g>
	<path class="st66" d="M393,128.2c0,0,3.4-0.8-0.7-6.1c-4.1-5.3-35-7.5-35-7.5c0.6-5-10.6-13.9-21.4-1.3c-6.8-8.2-28.8-10.3-30.5,6.8
		c-1.6,16.6,17.9,22.9,17.9,22.9L393,128.2z"/>
</g>
<g>
	<path class="st33" d="M366.6,177.6c-7.3,0-13.2-5.9-13.2-13.2c0-7.3,5.9-13.2,13.2-13.2s13.2,5.9,13.2,13.2
		C379.8,171.7,373.9,177.6,366.6,177.6z M366.6,153.2c-6.2,0-11.2,5-11.2,11.2s5,11.2,11.2,11.2c6.2,0,11.2-5,11.2-11.2
		S372.8,153.2,366.6,153.2z"/>
</g>
<g>
	<path class="st33" d="M339.3,183.4c-7.3,0-13.2-5.9-13.2-13.2c0-7.3,5.9-13.2,13.2-13.2s13.2,5.9,13.2,13.2
		C352.5,177.5,346.6,183.4,339.3,183.4z M339.3,159c-6.2,0-11.2,5-11.2,11.2s5,11.2,11.2,11.2s11.2-5,11.2-11.2S345.5,159,339.3,159
		z"/>
</g>
<g>
	<path class="st44" d="M351,158.5c0,0-6.4,11.9-5.2,17.9c1.3,6,10.3,3.9,10.3,3.9"/>
	<path class="st55" d="M352.7,181.7c-1.7,0-3.7-0.3-5.3-1.3c-1.4-0.9-2.2-2.1-2.6-3.8c-1.3-6.3,5-18.1,5.3-18.6
		c0.3-0.5,0.9-0.7,1.4-0.4c0.5,0.3,0.7,0.9,0.4,1.4c-0.1,0.1-6.2,11.7-5.1,17.2c0.2,1.1,0.8,1.9,1.7,2.5c2.7,1.7,7.3,0.6,7.4,0.6
		c0.5-0.1,1.1,0.2,1.2,0.7c0.1,0.5-0.2,1.1-0.7,1.2C356.2,181.3,354.6,181.7,352.7,181.7z"/>
</g>
<g>
	<path class="st33" d="M346.3,166.3c-0.5,0-0.9-0.3-1-0.8c-0.1-0.5,0.2-1.1,0.8-1.2l8.1-1.7c0.5-0.1,1.1,0.2,1.2,0.8
		s-0.2,1.1-0.8,1.2l-8.1,1.7C346.4,166.3,346.4,166.3,346.3,166.3z"/>
</g>
<g>
	<path class="st44" d="M353.8,374.2l23.5,24.3c1.4,1.4,0.6,3.8-1.4,4.2c-2.9,0.5-7.5,0.3-14.2-2.5c-14.9,5.3-19.2-7.6-19.2-7.6"/>
</g>
<g>
	<polygon class="st66" points="467.1,366.4 444.4,276.7 472.8,305.2 	"/>
</g>
<g>
	<g>
		<path class="st44" d="M425,382.5L425,382.5c4,10.5,15.4,16.1,26.2,12.7c27.2-8.5,57.5-16.9,101.1-32.4c13.9-5,21.1-20.4,15.9-34.2
			l0,0c-5.2-13.8-20.8-20.7-34.5-15.2c-42.9,17.1-71.3,30.8-97.4,42.4C425.9,360.2,421,372,425,382.5z"/>
	</g>
	<g>
		<path class="st44" d="M427.7,362.5l-19,27.9c-1.1,1.7,0.1,3.9,2,3.9c2.9,0,7.5-1,13.6-4.9c15.5,2.7,17.6-10.7,17.6-10.7"/>
	</g>
</g>
<g>
	<path class="st66" d="M533,340h-16.6c-5.1,0-9.2-4.1-9.2-9.2l0,0c0-5.1,4.1-9.2,9.2-9.2H533c5.1,0,9.2,4.1,9.2,9.2l0,0
		C542.2,335.9,538.1,340,533,340z"/>
</g>
<g>
	<path class="st66" d="M475.2,420.6L315,435.7c-7.4,0.7-13.9-4.7-14.6-12.1l-1.1-11.9c-0.7-7.4,4.7-13.9,12.1-14.6L471.5,382
		c7.4-0.7,13.9,4.7,14.6,12.1l1.1,11.9C487.9,413.4,482.5,419.9,475.2,420.6z"/>
</g>
<g>
	<path class="st01" d="M400.5,428.6c-0.5,0-0.9-0.4-1-0.9l-1.8-19.5c0-0.2-0.1-0.6-0.6-0.5l-8.7,0.9c-1.4,0.1-2.6-0.8-2.8-2.3
		l-1.5-16.1c-0.1-0.5,0.4-1,0.9-1.1c0.5-0.1,1,0.4,1.1,0.9l1.5,16.1c0,0.2,0.1,0.6,0.6,0.5l8.7-0.9c1.4-0.2,2.6,0.8,2.8,2.3
		l1.8,19.5C401.5,428.1,401.1,428.5,400.5,428.6C400.6,428.6,400.5,428.6,400.5,428.6z"/>
</g>
<g>
	<path class="st44" d="M326,408.9l16,28.1c1.3,2.3,3.9,3.7,6.5,3.4l16-1.5c4.7-0.4,7.5-5.4,5.5-9.7l-10.2-21.5l17.4,22.8
		c1.7,2.2,4.8,2.6,7,1l0,0c2.1-1.5,2.7-4.4,1.4-6.6l-24.9-43.4l-54.3,8.9l-13,14.3L326,408.9z"/>
</g>
<g>
	<path class="st55" d="M506.7,489.4H96c-0.6,0-1-0.4-1-1s0.4-1,1-1h410.7c0.6,0,1,0.4,1,1S507.3,489.4,506.7,489.4z"/>
</g>
<g>
	<path class="st44" d="M460.7,392.2L450,422.3c-0.9,2.5-3.2,4.3-5.9,4.5l-16,1.3c-4.7,0.4-8.3-4.1-7.1-8.6l6.5-22.9L414.2,422
		c-1.3,2.4-4.3,3.4-6.7,2.2l0,0c-2.3-1.2-3.4-3.8-2.5-6.2l17.2-47l22.2-2.2l47.5,14.1L460.7,392.2z"/>
</g>
<g>
	<polygon class="st33" points="406.8,355.7 397.5,354.1 400.7,334.3 385.1,355.9 394.5,357.4 391.2,377.3 	"/>
</g>
<g>
	<polygon class="st33" points="381.3,361.4 374.7,364.4 368.5,350.5 367.7,370.7 374.2,367.7 380.5,381.6 	"/>
</g>
<g>
	<path class="st55" d="M288.9,455.9l-22.2-94.2c-1.1-4.7-5.3-8.1-10.2-8.1H111.8c-6.7,0-11.7,6.3-10.2,12.8l22.2,94.2
		c1.1,4.7,5.3,8.1,10.2,8.1h144.7C285.5,468.8,290.4,462.5,288.9,455.9z"/>
</g>
<g>
	<path class="st66" d="M290,460.6l-24-101.9c-0.7-3-3.4-5.1-6.4-5.1l0,0c-4.3,0-7.4,4-6.4,8.1l24,101.9c0.7,3,3.4,5.1,6.4,5.1l0,0
		C287.8,468.8,291,464.8,290,460.6z"/>
</g>
<g>
	<path class="st55" d="M333.6,488.4H136.1c-5.7,0-10.4-4.6-10.4-10.4v-6.4H344v6.4C344,483.8,339.3,488.4,333.6,488.4z"/>
</g>
<g>
	<path class="st66" d="M333.6,488.4h-45c-5.7,0-10.4-4.6-10.4-10.4v-6.4H344v6.4C344,483.8,339.3,488.4,333.6,488.4z"/>
</g>
<g>
	<g>
		<path class="st77" d="M584.1,289.5h-51.3l18.5,18.5h32.9c5.1,0,9.2-4.1,9.2-9.2l0,0C593.3,293.6,589.2,289.5,584.1,289.5z"/>
	</g>
	<g>
		<path class="st33" d="M521.6,289.5c-5.1,0-9.2,4.1-9.2,9.2l0,0c0,5.1,4.1,9.2,9.2,9.2h29.6l-18.5-18.5L521.6,289.5L521.6,289.5z"/>
	</g>
</g>
</svg>
