<svg version="1.1" id="Capa_1" xmlns="http://www.w3.org/2000/svg" x="0" y="0" viewBox="0 0 612.8 612.8" xml:space="preserve"><style>.st01{fill:#bed8e2}.st-11{fill:#0ac18e}.st22{fill:#00976d}.st33{fill:#fff}.st44{fill:#86b6c9}.st55{fill:#005354}.st66{fill:#00382e}.st77{fill:#8ae2c9}</style><path class="st01" d="M531.3 506.8c-13 0-23.5-10.5-23.5-23.5V424c0-6.4-2.8-12.4-7.6-16.6-4.8-4.2-11.3-6.1-17.6-5.2l-17.7 2.6c-1.1.2-2.1-.6-2.3-1.7-.2-1.1.6-2.1 1.7-2.3l17.7-2.6c7.5-1.1 15.1 1.1 20.8 6.1 5.7 4.9 9 12.1 9 19.6v59.3c0 10.8 8.7 19.5 19.5 19.5s19.5-8.7 19.5-19.5V311.8c0-32.3-15.8-62.7-42.2-81.3l-20-14.1c-.9-.6-1.1-1.9-.5-2.8.6-.9 1.9-1.1 2.8-.5l20 14.1c27.5 19.3 43.8 50.9 43.8 84.5v171.5c.1 13.1-10.4 23.6-23.4 23.6zM142.3 507c-21-.1-38.1-17.2-38.1-38.2v-47.5c0-1.1.9-2 2-2s2 .9 2 2v47.5c0 18.8 15.3 34.1 34.1 34.2 12.4 0 25.3 0 35.9-.2l31.5-.4c22.6-.3 40.9-18.9 40.9-41.5 0-23.5 17.7-43 41.1-45.3l35.3-3.4c1.1-.1 2.1.7 2.2 1.8.1 1.1-.7 2.1-1.8 2.2l-35.3 3.4c-21.4 2.1-37.5 19.9-37.5 41.3 0 24.8-20.1 45.2-44.9 45.5l-31.5.4c-10.6.2-23.5.2-35.9.2zM123.9 320.6c-.2 0-.4 0-.6-.1-1-.3-1.6-1.5-1.3-2.5l52.7-159.7 303.4 49.5c1.1.2 1.8 1.2 1.7 2.3-.2 1.1-1.2 1.8-2.3 1.7l-300-48.9-51.7 156.5c-.3.7-1.1 1.2-1.9 1.2z"/><path class="st-11" d="M106.1 423.2H104c-4.7 0-8.5-3.8-8.5-8.5 0-2-1.4-3.8-3.4-4.4-3.5-.9-6.9-2.3-10.1-4-.6-.3-1.2-.6-1.7-.9-1.7-1-4-.7-5.5.7-3.4 3.3-8.8 3.3-12 0l-1.5-1.5c-3.3-3.4-3.3-8.8 0-12 1.5-1.5 1.8-3.7.8-5.4-2.2-3.9-3.9-8-5-12.2-.5-1.9-2.2-3.2-4.3-3.2-4.7 0-8.5-3.8-8.5-8.5v-2.1c0-4.7 3.8-8.5 8.5-8.5 2 0 3.8-1.4 4.4-3.4.9-3.5 2.3-6.9 4-10.1.3-.6.6-1.2.9-1.7 1-1.7.7-4-.7-5.5-3.3-3.4-3.3-8.8 0-12l1.5-1.5c3.4-3.3 8.8-3.3 12 0 1.5 1.5 3.7 1.8 5.4.8 3.9-2.2 8-3.9 12.2-5 1.9-.5 3.2-2.2 3.2-4.3 0-4.7 3.8-8.5 8.5-8.5h2.1c4.7 0 8.5 3.8 8.5 8.5 0 2 1.4 3.8 3.4 4.4 3.5.9 6.9 2.3 10.1 4 .6.3 1.2.6 1.7.9 1.7 1 4 .7 5.5-.7 3.4-3.3 8.8-3.3 12 0l1.5 1.5c3.3 3.4 3.3 8.8 0 12-1.5 1.5-1.8 3.7-.8 5.4 2.2 3.9 3.9 8 5 12.2.5 1.9 2.2 3.2 4.3 3.2 4.7 0 8.5 3.8 8.5 8.5v2.1c0 4.7-3.8 8.5-8.5 8.5-2 0-3.8 1.4-4.4 3.4-.9 3.5-2.3 6.9-4 10.1-.3.6-.6 1.1-.9 1.7-1 1.7-.7 4 .7 5.5 3.3 3.4 3.3 8.8 0 12l-1.5 1.5c-3.4 3.3-8.8 3.3-12 0-1.5-1.5-3.7-1.8-5.4-.8-3.9 2.2-8 3.9-12.2 5-1.9.5-3.2 2.2-3.2 4.3 0 4.7-3.8 8.5-8.5 8.5zM78 400.8c1.5 0 3 .4 4.3 1.2.4.3.9.5 1.2.7l.2.1c3 1.6 6.2 2.9 9.4 3.7 3.8 1.1 6.4 4.4 6.4 8.2 0 2.5 2 4.5 4.5 4.5h2.1c2.5 0 4.5-2 4.5-4.5 0-3.9 2.6-7.2 6.2-8.1 3.9-1 7.7-2.6 11.2-4.6 3.2-1.9 7.4-1.4 10.2 1.4 1.7 1.7 4.6 1.7 6.4 0l1.5-1.5c1.7-1.7 1.7-4.6 0-6.4-2.7-2.7-3.2-7-1.3-10.3.3-.4.5-.9.7-1.2l.1-.2c1.6-3 2.9-6.2 3.7-9.4 1-3.8 4.4-6.4 8.2-6.4 2.5 0 4.5-2 4.5-4.5v-2.1c0-2.5-2-4.5-4.5-4.5-3.9 0-7.2-2.6-8.1-6.2-1-3.9-2.6-7.7-4.6-11.2-1.9-3.2-1.4-7.4 1.4-10.2 1.7-1.7 1.7-4.6 0-6.4l-1.5-1.5c-1.7-1.7-4.6-1.7-6.4 0-2.7 2.7-7 3.2-10.3 1.3-.4-.3-.9-.5-1.2-.7l-.2-.1c-3-1.6-6.2-2.9-9.4-3.7-3.8-1.1-6.4-4.4-6.4-8.2 0-2.5-2-4.5-4.5-4.5h-2.1c-2.5 0-4.5 2-4.5 4.5 0 3.9-2.6 7.2-6.2 8.1-3.9 1-7.7 2.6-11.2 4.6-3.2 1.9-7.4 1.4-10.2-1.4-1.7-1.7-4.6-1.7-6.4 0l-1.5 1.5c-1.7 1.7-1.7 4.6 0 6.4 2.7 2.7 3.2 7 1.3 10.3-.3.4-.5.9-.7 1.2l-.1.2c-1.6 3-2.9 6.2-3.7 9.4-1.1 3.8-4.4 6.4-8.2 6.4-2.5 0-4.5 2-4.5 4.5v2.1c0 2.5 2 4.5 4.5 4.5 3.9 0 7.2 2.6 8.1 6.2 1 3.9 2.6 7.7 4.6 11.2 1.9 3.2 1.4 7.4-1.4 10.2-1.7 1.7-1.7 4.6 0 6.4l1.5 1.5c1.7 1.7 4.6 1.7 6.4 0 1.6-1.6 3.8-2.5 6-2.5z"/><path class="st-11" d="M105.1 387.2c-13.6 0-24.7-11.1-24.7-24.7s11.1-24.7 24.7-24.7 24.7 11.1 24.7 24.7-11.1 24.7-24.7 24.7zm0-45.4c-11.4 0-20.7 9.3-20.7 20.7s9.3 20.7 20.7 20.7 20.7-9.3 20.7-20.7-9.3-20.7-20.7-20.7z"/><circle class="st22" cx="475.9" cy="222.8" r="51.6"/><path class="st22" d="M423.1 226.6l4.5 14.5 97.8-32.7-4.4-13.9-97.1 32.2"/><circle class="st-11" cx="473.1" cy="213.7" r="51.6"/><path class="st33" d="M458.7 191.4c.6-1.9 1.3-3.9 1.9-5.8.1 0 .2.1.4.1l10.2 3.3c.4.1.4.1.5-.3.9-2.7 1.7-5.3 2.6-8 .1-.4.1-.4.5-.2 1.4.5 2.9.9 4.3 1.4h.1c.2 0 .3.2.2.4 0 .1-.1.2-.1.3-.9 2.6-1.7 5.2-2.6 7.9-.1.3-.1.3.2.4 1.4.4 2.7.9 4.1 1.3.4.1.4.1.6-.3.9-2.6 1.7-5.3 2.6-7.9.1-.3.1-.3.5-.2 1.4.5 2.8.9 4.3 1.4.4.1.4.1.3.5-.9 2.7-1.7 5.3-2.6 8-.1.3-.1.3.2.4 1.4.5 2.8 1.1 4 1.9 4.3 2.8 6.3 6.7 5.8 11.9-.2 2.1-1.2 3.8-2.9 5-1.2.8-2.4 1.5-3.8 2-.3.1-.3.1-.1.3l2.4 2.7c1 1.4 1.8 2.9 2 4.7.1 1.2 0 2.5-.3 3.7-.5 2.3-1.6 4.3-3.4 5.9-2.1 2-4.7 3.1-7.5 3.5-3.1.5-6.2.1-9.1-.8-.6-.2-.6-.2-.9.4-.8 2.6-1.7 5.1-2.5 7.7 0 .1-.1.2-.1.4-1.7-.5-3.3-1.1-5-1.6 0-.1.1-.2.1-.4.9-2.7 1.7-5.3 2.6-8 .1-.3.1-.3-.2-.4-1.4-.5-2.8-.9-4.2-1.4-.3-.1-.3-.1-.4.2-.9 2.7-1.7 5.3-2.6 8 0 .1-.1.2-.1.4-1.7-.5-3.3-1.1-5-1.6 0-.1.1-.2.1-.4.9-2.6 1.7-5.3 2.6-7.9.1-.4.1-.4-.3-.5l-10.2-3.3c-.1 0-.2-.1-.4-.1 0-.1 0-.1.1-.2 0-.1.1-.1.1-.2 1-1.7 2.1-3.5 3.1-5.3.1-.2.3-.3.5-.2 1.6.5 3.2 1.1 4.8 1.6.3.1.4.1.5-.2 3-9.2 6-18.5 9-27.7.1-.3.1-.3-.2-.4-2.1-.7-4.2-1.4-6.3-2-.2-.3-.3-.4-.4-.4zm8.7 27.5c-.6 1.9-1.2 3.8-1.9 5.8-.1.3-.1.3.2.4 2.7.9 5.5 1.8 8.2 2.7 1 .3 2.1.5 3.2.5 1.5 0 2.9-.3 4.1-1.3 1.2-.9 1.8-2.2 2.1-3.7.4-2-.1-3.8-1.5-5.3-1.2-1.2-2.6-1.9-4.2-2.5-2.7-.9-5.4-1.8-8.1-2.6-.3-.1-.3-.1-.4.2-.4 2-1.1 3.9-1.7 5.8zm5.5-16.8c-.6 1.7-1.1 3.5-1.7 5.2-.1.3-.1.3.2.4 2.1.7 4.2 1.4 6.4 2.1.9.3 1.8.4 2.8.4 2.3-.1 4.2-1.1 5.1-3.3.8-1.8.7-3.6-.5-5.2-1-1.5-2.5-2.3-4.1-2.9-2-.7-4.1-1.3-6.1-2-.3-.1-.3-.1-.5.2-.5 1.6-1.1 3.4-1.6 5.1z" id="vhrj0A_12_"/><path class="st22" d="M236.4 356.2c-10.4-10.4-10.4-27.4 0-37.8l58.9-58.9c10.4-10.4 27.4-10.4 37.8 0 10.4 10.4 10.4 27.4 0 37.8l-58.9 58.9c-10.5 10.4-27.4 10.4-37.8 0z"/><path class="st44" d="M251 303.8l-44.3 44.3c-10.4 10.4-10.4 27.4 0 37.8s27.4 10.4 37.8 0l44.3-44.3-37.8-37.8z"/><path class="st55" d="M299.2 331.8c-.3 0-.5-.1-.7-.3l-37.6-37.6c-.4-.4-.4-1 0-1.4s1-.4 1.4 0l37.6 37.6c.4.4.4 1 0 1.4-.2.2-.4.3-.7.3z"/><circle class="st44" cx="329.9" cy="174.3" r="8"/><path class="st66" d="M317.5 138.9l20.6-1.2 7.6 6.6-3.7 27.5-14 2.9-2-9.4-4.4-7.3z"/><path class="st55" d="M313.7 454.3h144.9v34.1H313.7z"/><path class="st22" d="M461.5 458l7.1-114.9 10.7-95.9-24.1-24.8c-88.6 0-150.5 30.9-150.5 30.9l-13.9 41.3 9.6 43.3 9 125c34.6 11.9 138 10.6 152.1-4.9z"/><path class="st22" d="M532.1 326.7c-10.4 10.4-27.4 10.4-37.8 0l-58.9-58.9c-10.4-10.4-10.4-27.4 0-37.8 10.4-10.4 27.4-10.4 37.8 0l58.9 58.9c10.5 10.4 10.5 27.3 0 37.8z"/><path class="st44" d="M479.7 312.1l44.3 44.3c10.4 10.4 27.4 10.4 37.8 0 10.4-10.4 10.4-27.4 0-37.8l-44.3-44.3-37.8 37.8z"/><path class="st55" d="M469.1 302.5c-.3 0-.5-.1-.7-.3-.4-.4-.4-1 0-1.4l37.6-37.6c.4-.4 1-.4 1.4 0s.4 1 0 1.4l-37.6 37.6c-.2.2-.4.3-.7.3z"/><path class="st44" d="M359.9 393.5c-2.1 11-12.5 18.5-23.6 17-28.3-3.8-69-8.8-114.7-16.7-14.6-2.5-24.2-16.5-21.4-31.1 2.8-14.5 17-23.9 31.4-20.9 45.2 9.6 85 20.1 112.7 27.1 10.9 2.8 17.7 13.5 15.6 24.6zM347.8 241.1c25.3 10.3 56.8-4.4 56.8-4.4l-3.9-51.4-41.9 3.2-11 52.6z"/><path class="st55" d="M358.8 188.6l38.8-3 .4 5.7c1.4 18.5-12.4 34.7-30.9 36.1-5.6.4-11-.5-15.8-2.6l7.5-36.2z"/><path class="st44" d="M374.4 222.8c18.2-3.8 29.8-21.6 26-39.8L389 129.2 323.3 143l11.3 53.8c3.8 18.2 21.6 29.8 39.8 26z"/><path class="st66" d="M373 132.3l20-4.1 7.1 4.6-3.6 27.5-11.4 2.4-2-9.4-7.1-6.8z"/><path class="st33" d="M378.6 162.9c-.5 0-.9-.3-1-.8-.1-.5.2-1.1.8-1.2l11.2-2.4c.5-.1 1.1.2 1.2.8s-.2 1.1-.8 1.2l-11.2 2.4h-.2zM358.1 166.2s4.2 3.7 8.2 2.9c4-.9 6.4-5.9 6.4-5.9s-4.2-3.7-8.2-2.9-6.4 5.9-6.4 5.9z"/><circle class="st55" cx="365.3" cy="165.6" r="3.7"/><path class="st33" d="M333 171.5s4.2 3.7 8.2 2.9c4-.9 6.4-5.9 6.4-5.9s-4.2-3.7-8.2-2.9c-4.1.8-6.4 5.9-6.4 5.9z"/><circle class="st55" cx="340.2" cy="170.9" r="3.7"/><path class="st33" d="M364.5 196.8c-7.3 1.5-14.6-3.2-16.1-10.5l26.6-5.6c1.5 7.4-3.2 14.6-10.5 16.1z"/><circle class="st44" cx="395.6" cy="160.5" r="8"/><path class="st66" d="M353.8 148.3l15.3-3.2-.4-2.1-15.8 1.1zM327 154l15.4-3.3-.9-4.2-14.9 5.4z"/><circle class="st22" cx="195.7" cy="196.9" r="86.8"/><path class="st22" d="M120.1 244l18.1 17.9L258 136.5l-17.6-17.2-119.2 124.2"/><circle class="st-11" cx="184.3" cy="185.5" r="86.8" id="SVGID_2_"/><path class="st33" d="M145.4 163.6c-.6-3.4-1.2-6.7-1.8-10.1.2 0 .4-.1.6-.1 5.9-1 11.9-2.1 17.8-3.1.7-.1.7-.1.6-.8-.8-4.6-1.6-9.3-2.4-13.9-.1-.6-.1-.6.5-.7 2.5-.4 5-.9 7.5-1.3h.2c.4-.1.5 0 .6.4 0 .1 0 .3.1.4.8 4.6 1.6 9.1 2.4 13.7.1.5.1.5.6.4 2.4-.4 4.7-.8 7.1-1.2.8-.1.8-.1.6-.9l-2.4-13.8c-.1-.6-.1-.6.5-.7 2.5-.4 4.9-.9 7.4-1.3.7-.1.7-.1.8.6.8 4.6 1.6 9.3 2.4 13.9.1.6.1.6.7.5 2.5-.4 5-.6 7.5-.4 8.6.8 14.7 5 17.9 13.1 1.3 3.3 1.2 6.5-.3 9.7-1.1 2.2-2.4 4.1-4 5.9-.3.4-.3.4.1.5 1.9.6 3.8 1.3 5.6 2.2 2.7 1.3 5 2.9 6.7 5.4 1.2 1.7 1.9 3.7 2.5 5.7 1 3.8.9 7.6-.4 11.4-1.6 4.6-4.6 8.3-8.5 11.2-4.2 3.2-9.1 5-14.2 6-1.1.2-1.1.2-.9 1.3.8 4.5 1.5 8.9 2.3 13.4 0 .2.1.4.1.6l-8.7 1.5c0-.2-.1-.4-.1-.6-.8-4.6-1.6-9.3-2.4-13.9-.1-.5-.1-.5-.6-.4-2.4.4-4.8.8-7.3 1.3-.6.1-.6.1-.5.7.8 4.6 1.6 9.3 2.4 13.9 0 .2.1.4.1.6l-8.7 1.5c0-.2-.1-.4-.1-.6l-2.4-13.8c-.1-.7-.1-.7-.8-.5-5.9 1-11.9 2.1-17.8 3.1-.2 0-.4.1-.6.1 0-.1 0-.2-.1-.3v-.4c.2-3.4.4-6.8.5-10.3 0-.4.2-.6.6-.7l8.4-1.5c.6-.1.6-.1.5-.7l-8.4-48.3c-.1-.6-.1-.6-.7-.5-3.6.6-7.3 1.3-10.9 1.9-.2-.1-.4-.1-.6-.1zm34.6 34.1c.6 3.3 1.2 6.7 1.7 10 .1.6.1.6.7.5 4.8-.8 9.5-1.6 14.3-2.5 1.8-.3 3.6-.9 5.2-1.7 2.3-1.2 4.1-2.7 5.2-5.1 1-2.3 1-4.7.3-7.2-.9-3.4-3.1-5.6-6.4-6.6-2.7-.9-5.4-.8-8.2-.4l-14.1 2.4c-.6.1-.6.1-.5.7.6 3.2 1.2 6.6 1.8 9.9zm-5.1-29.3c.5 3 1 6 1.6 9 .1.5.1.5.6.4 3.7-.6 7.4-1.3 11.1-1.9 1.6-.3 3-.8 4.4-1.6 3.4-2 5.4-4.8 5.1-8.9-.3-3.3-1.8-5.9-4.8-7.4-2.6-1.4-5.5-1.5-8.4-1.1-3.5.6-7.1 1.2-10.6 1.8-.6.1-.6.1-.5.7l1.5 9z" id="vhrj0A_10_"/><path class="st-11" d="M52.1 208.6H50c-5.1 0-9.2-4.1-9.2-9.2s4.1-9.2 9.2-9.2h2.1c5.1 0 9.2 4.1 9.2 9.2.1 5-4.1 9.2-9.2 9.2z"/><path class="st77" d="M76 191c-5.1 0-9.2 4.1-9.2 9.2s4.1 9.2 9.2 9.2h24.9c-1.7-5.9-2.8-12.1-3.2-18.5H76v.1z"/><path class="st55" d="M131.8 200.2c0-5.1-4.1-9.2-9.2-9.2H97.7c.4 6.4 1.5 12.6 3.2 18.5h21.7c5 0 9.2-4.2 9.2-9.3z"/><path class="st-11" d="M330.4 524.5h-62.5c-5.1 0-9.2-4.1-9.2-9.2s4.1-9.2 9.2-9.2h62.5c5.1 0 9.2 4.1 9.2 9.2 0 5-4.1 9.2-9.2 9.2z"/><path class="st66" d="M393 128.2s3.4-.8-.7-6.1-35-7.5-35-7.5c.6-5-10.6-13.9-21.4-1.3-6.8-8.2-28.8-10.3-30.5 6.8-1.6 16.6 17.9 22.9 17.9 22.9l69.7-14.8z"/><path class="st33" d="M366.6 177.6c-7.3 0-13.2-5.9-13.2-13.2 0-7.3 5.9-13.2 13.2-13.2s13.2 5.9 13.2 13.2c0 7.3-5.9 13.2-13.2 13.2zm0-24.4c-6.2 0-11.2 5-11.2 11.2s5 11.2 11.2 11.2c6.2 0 11.2-5 11.2-11.2s-5-11.2-11.2-11.2zM339.3 183.4c-7.3 0-13.2-5.9-13.2-13.2 0-7.3 5.9-13.2 13.2-13.2s13.2 5.9 13.2 13.2c0 7.3-5.9 13.2-13.2 13.2zm0-24.4c-6.2 0-11.2 5-11.2 11.2s5 11.2 11.2 11.2 11.2-5 11.2-11.2-5-11.2-11.2-11.2z"/><g><path class="st44" d="M351 158.5s-6.4 11.9-5.2 17.9c1.3 6 10.3 3.9 10.3 3.9"/><path class="st55" d="M352.7 181.7c-1.7 0-3.7-.3-5.3-1.3-1.4-.9-2.2-2.1-2.6-3.8-1.3-6.3 5-18.1 5.3-18.6.3-.5.9-.7 1.4-.4.5.3.7.9.4 1.4-.1.1-6.2 11.7-5.1 17.2.2 1.1.8 1.9 1.7 2.5 2.7 1.7 7.3.6 7.4.6.5-.1 1.1.2 1.2.7.1.5-.2 1.1-.7 1.2-.2.1-1.8.5-3.7.5z"/></g><g><path class="st33" d="M346.3 166.3c-.5 0-.9-.3-1-.8-.1-.5.2-1.1.8-1.2l8.1-1.7c.5-.1 1.1.2 1.2.8s-.2 1.1-.8 1.2l-8.1 1.7h-.2z"/></g><g><path class="st44" d="M353.8 374.2l23.5 24.3c1.4 1.4.6 3.8-1.4 4.2-2.9.5-7.5.3-14.2-2.5-14.9 5.3-19.2-7.6-19.2-7.6"/></g><g><path class="st66" d="M467.1 366.4l-22.7-89.7 28.4 28.5z"/></g><g><path class="st44" d="M425 382.5c4 10.5 15.4 16.1 26.2 12.7 27.2-8.5 57.5-16.9 101.1-32.4 13.9-5 21.1-20.4 15.9-34.2-5.2-13.8-20.8-20.7-34.5-15.2-42.9 17.1-71.3 30.8-97.4 42.4-10.4 4.4-15.3 16.2-11.3 26.7z"/><path class="st44" d="M427.7 362.5l-19 27.9c-1.1 1.7.1 3.9 2 3.9 2.9 0 7.5-1 13.6-4.9 15.5 2.7 17.6-10.7 17.6-10.7"/></g><g><path class="st66" d="M533 340h-16.6c-5.1 0-9.2-4.1-9.2-9.2s4.1-9.2 9.2-9.2H533c5.1 0 9.2 4.1 9.2 9.2s-4.1 9.2-9.2 9.2z"/></g><g><path class="st66" d="M475.2 420.6L315 435.7c-7.4.7-13.9-4.7-14.6-12.1l-1.1-11.9c-.7-7.4 4.7-13.9 12.1-14.6L471.5 382c7.4-.7 13.9 4.7 14.6 12.1l1.1 11.9c.7 7.4-4.7 13.9-12 14.6z"/></g><g><path class="st01" d="M400.5 428.6c-.5 0-.9-.4-1-.9l-1.8-19.5c0-.2-.1-.6-.6-.5l-8.7.9c-1.4.1-2.6-.8-2.8-2.3l-1.5-16.1c-.1-.5.4-1 .9-1.1.5-.1 1 .4 1.1.9l1.5 16.1c0 .2.1.6.6.5l8.7-.9c1.4-.2 2.6.8 2.8 2.3l1.8 19.5c0 .6-.4 1-1 1.1.1 0 0 0 0 0z"/></g><g><path class="st44" d="M326 408.9l16 28.1c1.3 2.3 3.9 3.7 6.5 3.4l16-1.5c4.7-.4 7.5-5.4 5.5-9.7l-10.2-21.5 17.4 22.8c1.7 2.2 4.8 2.6 7 1 2.1-1.5 2.7-4.4 1.4-6.6l-24.9-43.4-54.3 8.9-13 14.3 32.6 4.2z"/></g><g><path class="st55" d="M506.7 489.4H96c-.6 0-1-.4-1-1s.4-1 1-1h410.7c.6 0 1 .4 1 1s-.4 1-1 1z"/></g><g><path class="st44" d="M460.7 392.2L450 422.3c-.9 2.5-3.2 4.3-5.9 4.5l-16 1.3c-4.7.4-8.3-4.1-7.1-8.6l6.5-22.9-13.3 25.4c-1.3 2.4-4.3 3.4-6.7 2.2-2.3-1.2-3.4-3.8-2.5-6.2l17.2-47 22.2-2.2 47.5 14.1-31.2 9.3z"/></g><g><path class="st33" d="M406.8 355.7l-9.3-1.6 3.2-19.8-15.6 21.6 9.4 1.5-3.3 19.9z"/></g><g><path class="st33" d="M381.3 361.4l-6.6 3-6.2-13.9-.8 20.2 6.5-3 6.3 13.9z"/></g><g><path class="st55" d="M288.9 455.9l-22.2-94.2c-1.1-4.7-5.3-8.1-10.2-8.1H111.8c-6.7 0-11.7 6.3-10.2 12.8l22.2 94.2c1.1 4.7 5.3 8.1 10.2 8.1h144.7c6.8.1 11.7-6.2 10.2-12.8z"/></g><g><path class="st66" d="M290 460.6l-24-101.9c-.7-3-3.4-5.1-6.4-5.1-4.3 0-7.4 4-6.4 8.1l24 101.9c.7 3 3.4 5.1 6.4 5.1 4.2.1 7.4-3.9 6.4-8.1z"/></g><g><path class="st55" d="M333.6 488.4H136.1c-5.7 0-10.4-4.6-10.4-10.4v-6.4H344v6.4c0 5.8-4.7 10.4-10.4 10.4z"/></g><g><path class="st66" d="M333.6 488.4h-45c-5.7 0-10.4-4.6-10.4-10.4v-6.4H344v6.4c0 5.8-4.7 10.4-10.4 10.4z"/></g><g><path class="st77" d="M584.1 289.5h-51.3l18.5 18.5h32.9c5.1 0 9.2-4.1 9.2-9.2-.1-5.2-4.2-9.3-9.3-9.3z"/><path class="st33" d="M521.6 289.5c-5.1 0-9.2 4.1-9.2 9.2s4.1 9.2 9.2 9.2h29.6l-18.5-18.5-11.1.1z"/></g></svg>