<?xml version="1.0" encoding="utf-8"?>
<!-- Generator: Adobe Illustrator 24.0.1, SVG Export Plug-In . SVG Version: 6.00 Build 0)  -->
<svg version="1.1" id="Capa_1" xmlns="http://www.w3.org/2000/svg" xmlns:xlink="http://www.w3.org/1999/xlink" x="0px" y="0px"
	 viewBox="0 0 612.8 612.8" style="enable-background:new 0 0 612.8 612.8;" xml:space="preserve">
<style type="text/css">
	.node00{fill:#005354;}
	.st1{fill:#8AE2C9;}
	.st2{fill:#00976D;}
	.st3{fill:#0AC18E;}
	.st4{fill:#FFFFFF;}
	.st5{fill:#00382E;}
	.st6{fill:#DCEEFF;}
	.st7{fill:#BED8E2;}
	.st8{fill:none;stroke:#FFFFFF;stroke-linecap:round;stroke-miterlimit:10;}
	.uyg7{fill:none;stroke:#BED8E2;stroke-width:4;stroke-linecap:round;stroke-miterlimit:10;}
	.mppp0{fill:none;stroke:#0AC18E;stroke-width:4;stroke-linecap:round;stroke-miterlimit:10;}
	.st11{fill:none;stroke:#00382E;stroke-width:4;stroke-linecap:round;stroke-miterlimit:10;}
</style>
<path class="node00" d="M142.5,495.2l155.8,90.1c2.5,1.5,5.6,1.5,8.1,0l202.2-114.2c5.5-3.1,5.6-11.1,0.1-14.2l-155.8-90.1
	c-2.5-1.5-5.6-1.5-8.1,0L142.6,480.9C137.1,484.1,137,492,142.5,495.2z"/>
<polygon class="node00" points="138.4,468.4 138.4,488.2 301.3,582.1 512.8,464.9 512.8,444.4 384.6,452.7 "/>
<path class="st1" d="M124.4,330.5V374c0,5.5-4.4,9.9-9.9,9.9l0,0c-5.5,0-9.9-4.4-9.9-9.9v-43.5c0-5.5,4.4-9.9,9.9-9.9l0,0
	C120,320.6,124.4,325,124.4,330.5z"/>
<g>
	<circle class="st2" cx="226.4" cy="297" r="55.3"/>
	<polyline class="st2" points="178.3,326.9 189.8,338.4 266.1,258.5 254.9,247.6 179,326.6 	"/>
	<circle class="st3" cx="219.2" cy="289.7" r="55.3"/>
	<g id="vhrj0A_5_">
		<g>
			<path class="st4" d="M194.4,275.8c-0.4-2.1-0.7-4.3-1.1-6.4c0.1,0,0.3-0.1,0.4-0.1c3.8-0.7,7.6-1.3,11.4-2
				c0.4-0.1,0.4-0.1,0.4-0.5c-0.5-2.9-1-5.9-1.5-8.8c-0.1-0.4-0.1-0.4,0.3-0.5c1.6-0.3,3.2-0.5,4.8-0.8h0.1c0.2-0.1,0.3,0,0.4,0.3
				c0,0.1,0,0.2,0,0.3c0.5,2.9,1,5.8,1.5,8.7c0.1,0.3,0.1,0.3,0.4,0.3c1.5-0.3,3-0.5,4.5-0.8c0.5-0.1,0.5-0.1,0.4-0.5
				c-0.5-2.9-1-5.9-1.5-8.8c-0.1-0.4-0.1-0.4,0.3-0.4c1.6-0.3,3.1-0.5,4.7-0.8c0.4-0.1,0.4-0.1,0.5,0.4c0.5,3,1,5.9,1.5,8.9
				c0.1,0.4,0.1,0.4,0.4,0.3c1.6-0.3,3.2-0.4,4.7-0.2c5.5,0.5,9.4,3.2,11.4,8.4c0.8,2.1,0.8,4.2-0.2,6.2c-0.7,1.4-1.5,2.6-2.6,3.7
				c-0.2,0.2-0.2,0.2,0.1,0.3c1.2,0.4,2.4,0.8,3.6,1.4c1.7,0.8,3.2,1.9,4.3,3.5c0.8,1.1,1.2,2.3,1.6,3.6c0.7,2.4,0.6,4.9-0.3,7.2
				c-1,2.9-2.9,5.3-5.4,7.1c-2.7,2-5.8,3.2-9.1,3.8c-0.7,0.1-0.7,0.1-0.6,0.8c0.5,2.8,1,5.7,1.5,8.5c0,0.1,0,0.3,0.1,0.4
				c-1.8,0.3-3.7,0.6-5.5,1c0-0.1-0.1-0.3-0.1-0.4c-0.5-3-1-5.9-1.5-8.9c-0.1-0.3-0.1-0.3-0.4-0.3c-1.5,0.3-3.1,0.5-4.6,0.8
				c-0.4,0.1-0.4,0.1-0.3,0.4c0.5,3,1,5.9,1.5,8.9c0,0.1,0,0.3,0.1,0.4c-1.8,0.3-3.7,0.6-5.5,1c0-0.1-0.1-0.3-0.1-0.4
				c-0.5-2.9-1-5.9-1.5-8.8c-0.1-0.4-0.1-0.4-0.5-0.3c-3.8,0.7-7.6,1.3-11.4,2c-0.1,0-0.3,0-0.4,0.1c0-0.1,0-0.1,0-0.2s0-0.2,0-0.3
				c0.1-2.2,0.2-4.4,0.3-6.5c0-0.3,0.1-0.4,0.4-0.4c1.8-0.3,3.6-0.6,5.4-0.9c0.4-0.1,0.4-0.1,0.3-0.4c-1.8-10.2-3.6-20.5-5.3-30.7
				c-0.1-0.4-0.1-0.4-0.4-0.3c-2.3,0.4-4.6,0.8-6.9,1.2C194.6,275.7,194.5,275.8,194.4,275.8z M216.4,297.5c0.4,2.1,0.7,4.3,1.1,6.4
				c0.1,0.4,0.1,0.4,0.4,0.3c3-0.5,6.1-1,9.1-1.6c1.2-0.2,2.3-0.6,3.3-1.1c1.4-0.7,2.6-1.7,3.3-3.3c0.6-1.5,0.6-3,0.2-4.6
				c-0.6-2.1-2-3.5-4.1-4.2c-1.7-0.6-3.5-0.5-5.2-0.2c-3,0.5-6,1-9,1.5c-0.4,0.1-0.4,0.1-0.3,0.4C215.7,293.2,216,295.4,216.4,297.5
				z M213.2,278.8c0.3,1.9,0.7,3.8,1,5.7c0.1,0.3,0.1,0.3,0.4,0.3c2.3-0.4,4.7-0.8,7-1.2c1-0.2,1.9-0.5,2.8-1
				c2.2-1.3,3.4-3.1,3.2-5.7c-0.2-2.1-1.2-3.7-3.1-4.7c-1.7-0.9-3.5-1-5.3-0.7c-2.3,0.4-4.5,0.8-6.8,1.2c-0.4,0.1-0.4,0.1-0.3,0.5
				C212.5,275,212.8,276.9,213.2,278.8z"/>
		</g>
	</g>
</g>
<path class="st1" d="M247.9,182.4v68.2c0,5.1-4.1,9.2-9.2,9.2h-1.3c-5.1,0-9.2-4.1-9.2-9.2v-68.2c0-5.1,4.1-9.2,9.2-9.2h1.3
	C243.8,173.1,247.9,177.3,247.9,182.4z"/>
<path class="st5" d="M247.9,134v19.1c0,5.1-4.1,9.2-9.2,9.2h-1.3c-5.1,0-9.2-4.1-9.2-9.2V134c0-5.1,4.1-9.2,9.2-9.2h1.3
	C243.8,124.7,247.9,128.8,247.9,134z"/>
<g>
	<g>
		<path id="SVGID_2_" class="st3" d="M142.5,475.7l155.8,90.1c2.5,1.5,5.6,1.5,8.1,0l202.2-114.2c5.5-3.1,5.6-11.1,0.1-14.2
			l-155.8-90.1c-2.5-1.5-5.6-1.5-8.1,0L142.6,461.5C137.1,464.6,137,472.5,142.5,475.7z"/>
	</g>
</g>
<g>
	<path id="XMLID_14_" class="st2" d="M385.4,491.1l-29.1-16.8c-2.5-1.4-6.5-1.4-9,0L318.4,491c-2.5,1.4-2.5,3.8,0,5.2l28.9,16.8
		c2.5,1.4,6.5,1.4,9,0l29.1-16.8C387.9,494.8,387.9,492.5,385.4,491.1z"/>
	<g>
		<g id="XMLID_25_">
			<g id="XMLID_31_">
				<path id="XMLID_33_" class="st5" d="M351.7,489.1v13.6c-0.3,0-0.7-0.1-1-0.2l-12.5-7.2c-0.5-0.3-1-1.1-1-1.7v-4.4L351.7,489.1
					L351.7,489.1z"/>
				<path id="XMLID_32_" class="st5" d="M366.1,489.1v4.4c0,0.6-0.4,1.4-1,1.7l-12.5,7.2c-0.3,0.2-0.6,0.2-1,0.2V489L366.1,489.1
					L366.1,489.1z"/>
			</g>
			<path id="XMLID_30_" class="node00" d="M352.6,497.2l13.1-7.6c0.5-0.3,0.5-0.8,0-1.1l-13.1-7.6c-0.5-0.3-1.4-0.3-1.9,0l-13.1,7.6
				c-0.5,0.3-0.5,0.8,0,1.1l13.1,7.6C351.3,497.5,352.1,497.5,352.6,497.2z"/>
		</g>
	</g>
</g>
<g>
	<path id="XMLID_44_" class="st2" d="M344.4,515.2l-29.1-16.8c-2.5-1.4-6.5-1.4-9,0l-28.9,16.7c-2.5,1.4-2.5,3.8,0,5.2l28.9,16.8
		c2.5,1.4,6.5,1.4,9,0l29.1-16.8C346.9,518.9,346.9,516.6,344.4,515.2z"/>
	<g>
		<g id="XMLID_1_">
			<g id="XMLID_41_">
				<path id="XMLID_43_" class="st5" d="M310.7,513.2v13.6c-0.3,0-0.7-0.1-1-0.2l-12.5-7.2c-0.5-0.3-1-1.1-1-1.7v-4.4L310.7,513.2
					L310.7,513.2z"/>
				<path id="XMLID_42_" class="st5" d="M325.1,513.2v4.4c0,0.6-0.4,1.4-1,1.7l-12.5,7.2c-0.3,0.2-0.6,0.2-1,0.2v-13.6L325.1,513.2
					L325.1,513.2z"/>
			</g>
			<path id="XMLID_40_" class="node00" d="M311.6,521.3l13.1-7.6c0.5-0.3,0.5-0.8,0-1.1l-13.1-7.6c-0.5-0.3-1.4-0.3-1.9,0l-13.1,7.6
				c-0.5,0.3-0.5,0.8,0,1.1l13.1,7.6C310.2,521.6,311.1,521.6,311.6,521.3z"/>
		</g>
	</g>
</g>
<g id="XMLID_48_">
	<g id="XMLID_74_">
		<path id="XMLID_86_" class="st6" d="M414.1,411.6l-67.2,38.8c-0.9,0.5-2,0.7-3.1,0.7s-2.3-0.2-3.1-0.7l-67.2-38.8
			c-0.9-0.5-1.3-1.2-1.3-1.8c0-0.7,0.4-1.3,1.3-1.8l9.1-5.3l58.1-33.5c1.7-1,4.5-1,6.3,0l67.2,38.8
			C415.8,409,415.8,410.6,414.1,411.6z"/>
		<path id="XMLID_84_" class="st7" d="M343.7,438.1v13.1c-1.1,0-2.3-0.2-3.1-0.7l-67.2-38.8c-0.9-0.5-1.3-1.2-1.3-1.8v-11.3
			c0-0.5,0.2-1,0.7-1.4l9.7,5.6L343.7,438.1z"/>
		<path id="XMLID_82_" class="st7" d="M343.7,438.1v13.1c1.1,0,2.3-0.2,3.1-0.7l67.3-38.8c0.9-0.5,1.3-1.2,1.3-1.8v-11.3
			c0-0.5-0.2-1-0.7-1.4l-9.7,5.6L343.7,438.1z"/>
		<path id="XMLID_80_" class="st7" d="M414.1,400.3l-67.2,38.8c-0.9,0.5-2,0.7-3.1,0.7s-2.3-0.2-3.1-0.7l-67.2-38.8
			c-0.9-0.5-1.3-1.1-1.3-1.8c0-0.5,0.2-1,0.7-1.4c0.2-0.2,0.4-0.3,0.6-0.4l67.2-38.8c1.7-1,4.5-1,6.3,0l67.2,38.8
			C415.8,397.7,415.8,399.3,414.1,400.3z"/>
		<path id="XMLID_77_" class="node00" d="M341.6,365.8L287,397.3c-1.2,0.7-1.2,1.7,0,2.4l54.6,31.5c1.2,0.7,3,0.7,4.2,0l54.6-31.5
			c1.2-0.7,1.2-1.7,0-2.4l-54.6-31.5C344.7,365.1,342.8,365.1,341.6,365.8z"/>
	</g>
	<path id="XMLID_72_" class="st8" d="M344.2,384.1l16.2-9.3c0.3-0.1,0.3-0.4,0-0.5l-16.2-9.3c-0.3-0.1-0.7-0.1-0.9,0l-16.1,9.3
		c-0.3,0.1-0.3,0.4,0,0.5l16.1,9.3C343.5,384.2,343.9,384.2,344.2,384.1z"/>
	<g id="XMLID_49_">
		<g id="XMLID_63_">
			<g id="XMLID_69_">
				<path id="XMLID_71_" class="st5" d="M343.7,383.6V421c1,0,1.9-0.2,2.7-0.6l34.6-20c1.5-0.8,2.7-2.9,2.7-4.6v-12.2L343.7,383.6
					L343.7,383.6z"/>
				<path id="XMLID_70_" class="st5" d="M303.8,383.6v12.2c0,1.7,1.2,3.7,2.7,4.6l34.6,20c0.7,0.4,1.7,0.6,2.7,0.6v-37.4
					L303.8,383.6L303.8,383.6z"/>
			</g>
			<path id="XMLID_68_" class="node00" d="M341.1,406l-36.2-20.9c-1.5-0.8-1.5-2.2,0-3.1l36.2-20.9c1.5-0.8,3.8-0.8,5.3,0l36.2,20.9
				c1.5,0.8,1.5,2.2,0,3.1L346.4,406C344.9,406.8,342.5,406.8,341.1,406z"/>
			<path id="XMLID_64_" class="st8" d="M344.6,369.7l23.3,13.3c0.5,0.3,0.5,0.7,0,1l-23.3,13.4c-0.5,0.3-1.3,0.3-1.8,0L319.7,384
				c-0.5-0.3-0.5-0.7,0-1l23.1-13.3C343.3,369.4,344.1,369.4,344.6,369.7z"/>
		</g>
	</g>
	<g id="XMLID_66_">
		<g id="XMLID_98_">
			<g id="XMLID_102_">
				<path id="XMLID_104_" class="st5" d="M428.3,456l-19.2,32.9c1.5,0,3.1-0.3,4.3-1l55.6-32.1c2.4-1.4,4.3-4.7,4.3-7.4V445
					L428.3,456z"/>
				<path id="XMLID_103_" class="st5" d="M364.2,456v3.4c0,2.7,1.9,6,4.3,7.4l36.4,21.1c1.2,0.7,2.7,1,4.3,1l19.2-32.9H364.2z"/>
			</g>
			<path id="XMLID_101_" class="node00" d="M404.8,481l-38.9-22.6c-2.4-1.4-2.4-3.6,0-4.9L424,420c2.4-1.4,6.2-1.4,8.5,0l38.9,22.5
				c2.4,1.4,2.4,3.6,0,4.9l-58,33.6C411,482.4,407.2,482.4,404.8,481z"/>
		</g>
	</g>
	<g id="XMLID_2_">
		<g id="XMLID_3_">
			<g id="XMLID_5_">
				<path id="XMLID_7_" class="st5" d="M261.4,467l-22.3,38.1c1.8,0,3.6-0.4,4.9-1.2l64.5-37.2c2.7-1.6,4.9-5.4,4.9-8.6v-3.9
					L261.4,467z"/>
				<path id="XMLID_6_" class="st5" d="M187,467v3.9c0,3.2,2.2,7,4.9,8.6l42.2,24.5c1.4,0.8,3.2,1.2,4.9,1.2l22.3-38.1H187V467z"/>
			</g>
			<path id="XMLID_4_" class="node00" d="M234.2,496l-45.1-26.2c-2.7-1.6-2.7-4.1,0-5.7l67.4-38.9c2.7-1.6,7.2-1.6,9.9,0l45.1,26.1
				c2.7,1.6,2.7,4.1,0,5.7l-67.4,39C241.3,497.6,236.9,497.6,234.2,496z"/>
		</g>
	</g>
</g>
<circle class="uyg7" cx="139.1" cy="174.2" r="24.6"/>
<g>
	<circle class="st2" cx="367.7" cy="138.3" r="55.3"/>
	<polyline class="st2" points="311.1,142.3 315.9,157.8 420.7,122.8 415.9,107.9 311.9,142.4 	"/>
	<circle class="st3" cx="364.6" cy="128.5" r="55.3"/>
	<g id="vhrj0A_6_">
		<g>
			<path class="st4" d="M349.2,104.6c0.7-2.1,1.3-4.1,2-6.2c0.1,0,0.3,0.1,0.4,0.1c3.7,1.2,7.3,2.4,11,3.6c0.4,0.1,0.4,0.1,0.5-0.3
				c0.9-2.8,1.8-5.7,2.8-8.5c0.1-0.4,0.1-0.4,0.5-0.3c1.5,0.5,3.1,1,4.6,1.5h0.1c0.2,0,0.3,0.2,0.2,0.4c0,0.1-0.1,0.2-0.1,0.3
				c-0.9,2.8-1.8,5.6-2.7,8.4c-0.1,0.3-0.1,0.3,0.2,0.4c1.5,0.5,2.9,0.9,4.4,1.4c0.5,0.1,0.5,0.1,0.6-0.3c0.9-2.8,1.8-5.7,2.8-8.5
				c0.1-0.4,0.1-0.4,0.5-0.2c1.5,0.5,3,1,4.6,1.5c0.4,0.1,0.4,0.1,0.3,0.6c-0.9,2.9-1.9,5.7-2.8,8.6c-0.1,0.3-0.1,0.3,0.2,0.5
				c1.5,0.5,3,1.1,4.3,2c4.6,3,6.8,7.2,6.2,12.7c-0.2,2.2-1.2,4-3.1,5.4c-1.2,0.9-2.6,1.6-4,2.1c-0.3,0.1-0.3,0.1-0.1,0.3
				c0.9,0.9,1.8,1.9,2.5,2.9c1.1,1.5,1.9,3.1,2.1,5c0.1,1.3,0,2.6-0.3,3.9c-0.6,2.5-1.8,4.6-3.6,6.3c-2.3,2.1-5,3.3-8.1,3.8
				c-3.3,0.5-6.6,0.1-9.8-0.8c-0.7-0.2-0.7-0.2-0.9,0.5c-0.9,2.7-1.8,5.5-2.7,8.2c0,0.1-0.1,0.3-0.1,0.4c-1.8-0.6-3.6-1.2-5.3-1.7
				c0-0.1,0.1-0.3,0.1-0.4c0.9-2.9,1.9-5.7,2.8-8.6c0.1-0.3,0.1-0.3-0.2-0.4c-1.5-0.5-3-1-4.5-1.4c-0.4-0.1-0.4-0.1-0.5,0.2
				c-0.9,2.8-1.9,5.7-2.8,8.5c0,0.1-0.1,0.3-0.1,0.4c-1.8-0.6-3.6-1.2-5.3-1.7c0-0.1,0.1-0.3,0.1-0.4c0.9-2.8,1.8-5.7,2.8-8.5
				c0.1-0.4,0.1-0.4-0.3-0.5c-3.7-1.2-7.3-2.4-11-3.6c-0.1,0-0.3-0.1-0.4-0.1c0-0.1,0-0.1,0.1-0.2c0.1-0.1,0.1-0.2,0.2-0.2
				c1.1-1.9,2.2-3.7,3.3-5.6c0.1-0.2,0.3-0.3,0.5-0.2c1.7,0.6,3.4,1.1,5.2,1.7c0.4,0.1,0.4,0.1,0.5-0.2c3.2-9.9,6.4-19.8,9.6-29.7
				c0.1-0.4,0.1-0.4-0.2-0.5c-2.2-0.7-4.5-1.5-6.7-2.2C349.5,104.7,349.3,104.7,349.2,104.6z M358.6,134.1c-0.7,2.1-1.3,4.1-2,6.2
				c-0.1,0.3-0.1,0.3,0.2,0.5c2.9,1,5.9,1.9,8.8,2.9c1.1,0.4,2.3,0.6,3.5,0.6c1.6,0,3.1-0.3,4.4-1.4c1.3-1,2-2.4,2.3-3.9
				c0.5-2.2-0.1-4.1-1.6-5.6c-1.3-1.3-2.8-2.1-4.5-2.6c-2.9-1-5.8-1.9-8.7-2.8c-0.3-0.1-0.3-0.1-0.5,0.3
				C359.9,130,359.2,132,358.6,134.1z M364.4,116.1c-0.6,1.8-1.2,3.7-1.8,5.5c-0.1,0.3-0.1,0.3,0.2,0.4c2.3,0.7,4.5,1.5,6.8,2.2
				c1,0.3,2,0.5,3,0.4c2.5-0.1,4.5-1.1,5.5-3.5c0.8-1.9,0.7-3.8-0.5-5.6c-1.1-1.6-2.6-2.5-4.4-3.1c-2.2-0.7-4.4-1.4-6.5-2.1
				c-0.4-0.1-0.4-0.1-0.5,0.3C365.6,112.4,365,114.2,364.4,116.1z"/>
		</g>
	</g>
</g>
<path class="st4" d="M411.2,241.9v103c0,5.5-4.4,9.9-9.9,9.9l0,0c-5.5,0-9.9-4.4-9.9-9.9v-103c0-5.5,4.4-9.9,9.9-9.9l0,0
	C406.8,232,411.2,236.4,411.2,241.9z"/>
<path class="st5" d="M452.6,201.8v36.8c0,5.5-4.4,9.9-9.9,9.9l0,0c-5.5,0-9.9-4.4-9.9-9.9v-36.8c0-5.5,4.4-9.9,9.9-9.9l0,0
	C448.1,191.9,452.6,196.3,452.6,201.8z"/>
<circle class="st3" cx="459" cy="267.6" r="34.8"/>
<g id="vhrj0A_7_">
	<g>
		<path class="st1" d="M439.8,256.2c-0.3-1.7-0.6-3.3-0.9-5c0.1,0,0.2-0.1,0.3-0.1c2.9-0.5,5.8-1,8.7-1.5c0.3-0.1,0.3-0.1,0.3-0.4
			c-0.4-2.3-0.8-4.5-1.2-6.8c-0.1-0.3-0.1-0.3,0.2-0.4c1.2-0.2,2.4-0.4,3.7-0.6h0.1c0.2-0.1,0.3,0,0.3,0.2c0,0.1,0,0.1,0,0.2
			c0.4,2.2,0.8,4.5,1.2,6.7c0,0.2,0.1,0.3,0.3,0.2c1.2-0.2,2.3-0.4,3.5-0.6c0.4-0.1,0.4-0.1,0.3-0.4c-0.4-2.3-0.8-4.5-1.2-6.8
			c-0.1-0.3,0-0.3,0.2-0.3c1.2-0.2,2.4-0.4,3.6-0.6c0.3-0.1,0.3-0.1,0.4,0.3c0.4,2.3,0.8,4.5,1.2,6.8c0,0.3,0.1,0.3,0.3,0.2
			c1.2-0.2,2.4-0.3,3.7-0.2c4.2,0.4,7.2,2.5,8.8,6.4c0.6,1.6,0.6,3.2-0.2,4.8c-0.5,1.1-1.2,2-2,2.9c-0.2,0.2-0.2,0.2,0.1,0.2
			c0.9,0.3,1.9,0.6,2.8,1.1c1.3,0.6,2.4,1.4,3.3,2.7c0.6,0.9,0.9,1.8,1.2,2.8c0.5,1.9,0.4,3.7-0.2,5.6c-0.8,2.3-2.2,4-4.1,5.5
			c-2.1,1.6-4.4,2.5-7,3c-0.5,0.1-0.5,0.1-0.4,0.7c0.4,2.2,0.8,4.4,1.1,6.5c0,0.1,0,0.2,0,0.3c-1.4,0.2-2.8,0.5-4.2,0.7
			c0-0.1,0-0.2-0.1-0.3c-0.4-2.3-0.8-4.6-1.2-6.8c0-0.3-0.1-0.3-0.3-0.2c-1.2,0.2-2.4,0.4-3.6,0.6c-0.3,0-0.3,0-0.2,0.3
			c0.4,2.3,0.8,4.5,1.2,6.8c0,0.1,0,0.2,0,0.3c-1.4,0.2-2.8,0.5-4.2,0.7c0-0.1,0-0.2-0.1-0.3c-0.4-2.3-0.8-4.5-1.2-6.8
			c-0.1-0.3-0.1-0.3-0.4-0.3c-2.9,0.5-5.8,1-8.7,1.5c-0.1,0-0.2,0-0.3,0c0-0.1,0-0.1,0-0.2s0-0.1,0-0.2c0.1-1.7,0.2-3.4,0.3-5
			c0-0.2,0.1-0.3,0.3-0.3c1.4-0.2,2.8-0.5,4.1-0.7c0.3-0.1,0.3-0.1,0.2-0.3c-1.4-7.9-2.7-15.8-4.1-23.7c0-0.3,0-0.3-0.3-0.2
			c-1.8,0.3-3.6,0.6-5.3,0.9C440,256.2,439.9,256.2,439.8,256.2z M456.7,272.9c0.3,1.6,0.6,3.3,0.9,4.9c0,0.3,0,0.3,0.3,0.2
			c2.3-0.4,4.7-0.8,7-1.2c0.9-0.2,1.8-0.4,2.6-0.8c1.1-0.6,2-1.3,2.5-2.5c0.5-1.1,0.5-2.3,0.1-3.5c-0.5-1.6-1.5-2.7-3.1-3.3
			c-1.3-0.4-2.7-0.4-4-0.2c-2.3,0.4-4.6,0.8-6.9,1.2c-0.3,0-0.3,0-0.2,0.3C456.2,269.7,456.4,271.3,456.7,272.9z M454.2,258.6
			c0.3,1.5,0.5,2.9,0.8,4.4c0,0.3,0.1,0.3,0.3,0.2c1.8-0.3,3.6-0.6,5.4-0.9c0.8-0.1,1.5-0.4,2.2-0.8c1.7-1,2.6-2.4,2.5-4.4
			c-0.1-1.6-0.9-2.9-2.4-3.6c-1.3-0.7-2.7-0.8-4.1-0.5c-1.7,0.3-3.5,0.6-5.2,0.9c-0.3,0.1-0.3,0.1-0.2,0.3
			C453.7,255.6,454,257.1,454.2,258.6z"/>
	</g>
</g>
<path class="st1" d="M434,243.4c1.7,3,4.9,5.1,8.7,5.1c5.5,0,9.9-4.4,9.9-9.9v-5.2C445.3,234.8,438.9,238.3,434,243.4z"/>
<path class="st5" d="M228.1,235.2v15.5c0,5.1,4.1,9.2,9.2,9.2h1.3c5.1,0,9.2-4.1,9.2-9.2v-8.1C241.9,238.9,235.2,236.3,228.1,235.2z
	"/>
<g>
	<path class="st3" d="M455.3,339.3c0-5.1-4.1-9.2-9.2-9.2h-1.3c-5.1,0-9.2,4.1-9.2,9.2v55.8l19.8,11.5L455.3,339.3L455.3,339.3z"/>
	<path class="st5" d="M444.8,416.8h1.3c5.1,0,9.2-4.1,9.2-9.2v-1l-19.8-11.5v12.4C435.5,412.7,439.7,416.8,444.8,416.8z"/>
</g>
<line class="mppp0" x1="166.8" y1="289.7" x2="166.8" y2="345"/>
<line class="st11" x1="197.1" y1="321.9" x2="197.1" y2="392.4"/>
<line class="uyg7" x1="415.4" y1="127.1" x2="415.4" y2="210.6"/>
<line class="uyg7" x1="263.2" y1="197.6" x2="263.2" y2="223.6"/>
</svg>
