<svg version="1.1" id="Capa_1" xmlns="http://www.w3.org/2000/svg" x="0" y="0" viewBox="0 0 612.8 612.8" xml:space="preserve"><style>.yjgfre876f{fill:#005354}.st1{fill:#8ae2c9}.st2{fill:#00976d}.kuyer7675{fill:#0ac18e}.st4{fill:#fff}.76hfgf{fill:#00382e}.st7{fill:#bed8e2}.st8,.st9{fill:none;stroke:#fff;stroke-linecap:round;stroke-miterlimit:10}.st9{stroke:#bed8e2;stroke-width:4}</style><path class="yjgfre876f" d="M142.5 495.2l155.8 90.1c2.5 1.5 5.6 1.5 8.1 0l202.2-114.2c5.5-3.1 5.6-11.1.1-14.2l-155.8-90.1c-2.5-1.5-5.6-1.5-8.1 0L142.6 480.9c-5.5 3.2-5.6 11.1-.1 14.3z"/><path class="yjgfre876f" d="M138.4 468.4v19.8l162.9 93.9 211.5-117.2v-20.5l-128.2 8.3z"/><path class="st1" d="M124.4 330.5V374c0 5.5-4.4 9.9-9.9 9.9s-9.9-4.4-9.9-9.9v-43.5c0-5.5 4.4-9.9 9.9-9.9s9.9 4.4 9.9 9.9z"/><circle class="st2" cx="226.4" cy="297" r="55.3"/><path class="st2" d="M178.3 326.9l11.5 11.5 76.3-79.9-11.2-10.9-75.9 79"/><circle class="kuyer7675" cx="219.2" cy="289.7" r="55.3"/><path class="st4" d="M194.4 275.8c-.4-2.1-.7-4.3-1.1-6.4.1 0 .3-.1.4-.1 3.8-.7 7.6-1.3 11.4-2 .4-.1.4-.1.4-.5-.5-2.9-1-5.9-1.5-8.8-.1-.4-.1-.4.3-.5 1.6-.3 3.2-.5 4.8-.8h.1c.2-.1.3 0 .4.3v.3l1.5 8.7c.1.3.1.3.4.3 1.5-.3 3-.5 4.5-.8.5-.1.5-.1.4-.5-.5-2.9-1-5.9-1.5-8.8-.1-.4-.1-.4.3-.4 1.6-.3 3.1-.5 4.7-.8.4-.1.4-.1.5.4.5 3 1 5.9 1.5 8.9.1.4.1.4.4.3 1.6-.3 3.2-.4 4.7-.2 5.5.5 9.4 3.2 11.4 8.4.8 2.1.8 4.2-.2 6.2-.7 1.4-1.5 2.6-2.6 3.7-.2.2-.2.2.1.3 1.2.4 2.4.8 3.6 1.4 1.7.8 3.2 1.9 4.3 3.5.8 1.1 1.2 2.3 1.6 3.6.7 2.4.6 4.9-.3 7.2-1 2.9-2.9 5.3-5.4 7.1-2.7 2-5.8 3.2-9.1 3.8-.7.1-.7.1-.6.8.5 2.8 1 5.7 1.5 8.5 0 .1 0 .3.1.4-1.8.3-3.7.6-5.5 1 0-.1-.1-.3-.1-.4-.5-3-1-5.9-1.5-8.9-.1-.3-.1-.3-.4-.3-1.5.3-3.1.5-4.6.8-.4.1-.4.1-.3.4.5 3 1 5.9 1.5 8.9 0 .1 0 .3.1.4-1.8.3-3.7.6-5.5 1 0-.1-.1-.3-.1-.4-.5-2.9-1-5.9-1.5-8.8-.1-.4-.1-.4-.5-.3-3.8.7-7.6 1.3-11.4 2-.1 0-.3 0-.4.1v-.2-.3c.1-2.2.2-4.4.3-6.5 0-.3.1-.4.4-.4l5.4-.9c.4-.1.4-.1.3-.4-1.8-10.2-3.6-20.5-5.3-30.7-.1-.4-.1-.4-.4-.3l-6.9 1.2c-.4-.6-.5-.5-.6-.5zm22 21.7c.4 2.1.7 4.3 1.1 6.4.1.4.1.4.4.3 3-.5 6.1-1 9.1-1.6 1.2-.2 2.3-.6 3.3-1.1 1.4-.7 2.6-1.7 3.3-3.3.6-1.5.6-3 .2-4.6-.6-2.1-2-3.5-4.1-4.2-1.7-.6-3.5-.5-5.2-.2l-9 1.5c-.4.1-.4.1-.3.4.5 2.1.8 4.3 1.2 6.4zm-3.2-18.7c.3 1.9.7 3.8 1 5.7.1.3.1.3.4.3 2.3-.4 4.7-.8 7-1.2 1-.2 1.9-.5 2.8-1 2.2-1.3 3.4-3.1 3.2-5.7-.2-2.1-1.2-3.7-3.1-4.7-1.7-.9-3.5-1-5.3-.7-2.3.4-4.5.8-6.8 1.2-.4.1-.4.1-.3.5.4 1.8.7 3.7 1.1 5.6z" id="vhrj0A_5_"/><path class="st1" d="M247.9 182.4v68.2c0 5.1-4.1 9.2-9.2 9.2h-1.3c-5.1 0-9.2-4.1-9.2-9.2v-68.2c0-5.1 4.1-9.2 9.2-9.2h1.3c5.1-.1 9.2 4.1 9.2 9.2z"/><path class="76hfgf" d="M247.9 134v19.1c0 5.1-4.1 9.2-9.2 9.2h-1.3c-5.1 0-9.2-4.1-9.2-9.2V134c0-5.1 4.1-9.2 9.2-9.2h1.3c5.1-.1 9.2 4 9.2 9.2z"/><path id="SVGID_2_" class="kuyer7675" d="M142.5 475.7l155.8 90.1c2.5 1.5 5.6 1.5 8.1 0l202.2-114.2c5.5-3.1 5.6-11.1.1-14.2l-155.8-90.1c-2.5-1.5-5.6-1.5-8.1 0L142.6 461.5c-5.5 3.1-5.6 11-.1 14.2z"/><path id="XMLID_14_" class="st2" d="M385.4 491.1l-29.1-16.8c-2.5-1.4-6.5-1.4-9 0L318.4 491c-2.5 1.4-2.5 3.8 0 5.2l28.9 16.8c2.5 1.4 6.5 1.4 9 0l29.1-16.8c2.5-1.4 2.5-3.7 0-5.1z"/><g id="XMLID_25_"><g id="XMLID_31_"><path id="XMLID_33_" class="76hfgf" d="M351.7 489.1v13.6c-.3 0-.7-.1-1-.2l-12.5-7.2c-.5-.3-1-1.1-1-1.7v-4.4l14.5-.1z"/><path id="XMLID_32_" class="76hfgf" d="M366.1 489.1v4.4c0 .6-.4 1.4-1 1.7l-12.5 7.2c-.3.2-.6.2-1 .2V489l14.5.1z"/></g><path id="XMLID_30_" class="yjgfre876f" d="M352.6 497.2l13.1-7.6c.5-.3.5-.8 0-1.1l-13.1-7.6c-.5-.3-1.4-.3-1.9 0l-13.1 7.6c-.5.3-.5.8 0 1.1l13.1 7.6c.6.3 1.4.3 1.9 0z"/></g><path id="XMLID_44_" class="st2" d="M344.4 515.2l-29.1-16.8c-2.5-1.4-6.5-1.4-9 0l-28.9 16.7c-2.5 1.4-2.5 3.8 0 5.2l28.9 16.8c2.5 1.4 6.5 1.4 9 0l29.1-16.8c2.5-1.4 2.5-3.7 0-5.1z"/><g id="XMLID_1_"><g id="XMLID_41_"><path id="XMLID_43_" class="76hfgf" d="M310.7 513.2v13.6c-.3 0-.7-.1-1-.2l-12.5-7.2c-.5-.3-1-1.1-1-1.7v-4.4l14.5-.1z"/><path id="XMLID_42_" class="76hfgf" d="M325.1 513.2v4.4c0 .6-.4 1.4-1 1.7l-12.5 7.2c-.3.2-.6.2-1 .2v-13.6l14.5.1z"/></g><path id="XMLID_40_" class="yjgfre876f" d="M311.6 521.3l13.1-7.6c.5-.3.5-.8 0-1.1l-13.1-7.6c-.5-.3-1.4-.3-1.9 0l-13.1 7.6c-.5.3-.5.8 0 1.1l13.1 7.6c.5.3 1.4.3 1.9 0z"/></g><g id="XMLID_48_"><g id="XMLID_74_"><path id="XMLID_86_" d="M414.1 411.6l-67.2 38.8c-.9.5-2 .7-3.1.7s-2.3-.2-3.1-.7l-67.2-38.8c-.9-.5-1.3-1.2-1.3-1.8 0-.7.4-1.3 1.3-1.8l9.1-5.3 58.1-33.5c1.7-1 4.5-1 6.3 0l67.2 38.8c1.6 1 1.6 2.6-.1 3.6z" fill="#dceeff"/><path id="XMLID_84_" class="st7" d="M343.7 438.1v13.1c-1.1 0-2.3-.2-3.1-.7l-67.2-38.8c-.9-.5-1.3-1.2-1.3-1.8v-11.3c0-.5.2-1 .7-1.4l9.7 5.6 61.2 35.3z"/><path id="XMLID_82_" class="st7" d="M343.7 438.1v13.1c1.1 0 2.3-.2 3.1-.7l67.3-38.8c.9-.5 1.3-1.2 1.3-1.8v-11.3c0-.5-.2-1-.7-1.4l-9.7 5.6-61.3 35.3z"/><path id="XMLID_80_" class="st7" d="M414.1 400.3l-67.2 38.8c-.9.5-2 .7-3.1.7s-2.3-.2-3.1-.7l-67.2-38.8c-.9-.5-1.3-1.1-1.3-1.8 0-.5.2-1 .7-1.4.2-.2.4-.3.6-.4l67.2-38.8c1.7-1 4.5-1 6.3 0l67.2 38.8c1.6 1 1.6 2.6-.1 3.6z"/><path id="XMLID_77_" class="yjgfre876f" d="M341.6 365.8L287 397.3c-1.2.7-1.2 1.7 0 2.4l54.6 31.5c1.2.7 3 .7 4.2 0l54.6-31.5c1.2-.7 1.2-1.7 0-2.4l-54.6-31.5c-1.1-.7-3-.7-4.2 0z"/></g><path id="XMLID_72_" class="st8" d="M344.2 384.1l16.2-9.3c.3-.1.3-.4 0-.5l-16.2-9.3c-.3-.1-.7-.1-.9 0l-16.1 9.3c-.3.1-.3.4 0 .5l16.1 9.3c.2.1.6.1.9 0z"/><g id="XMLID_49_"><g id="XMLID_63_"><g id="XMLID_69_"><path id="XMLID_71_" class="76hfgf" d="M343.7 383.6V421c1 0 1.9-.2 2.7-.6l34.6-20c1.5-.8 2.7-2.9 2.7-4.6v-12.2h-40z"/><path id="XMLID_70_" class="76hfgf" d="M303.8 383.6v12.2c0 1.7 1.2 3.7 2.7 4.6l34.6 20c.7.4 1.7.6 2.7.6v-37.4h-40z"/></g><path id="XMLID_68_" class="yjgfre876f" d="M341.1 406l-36.2-20.9c-1.5-.8-1.5-2.2 0-3.1l36.2-20.9c1.5-.8 3.8-.8 5.3 0l36.2 20.9c1.5.8 1.5 2.2 0 3.1L346.4 406c-1.5.8-3.9.8-5.3 0z"/><path id="XMLID_64_" class="st8" d="M344.6 369.7l23.3 13.3c.5.3.5.7 0 1l-23.3 13.4c-.5.3-1.3.3-1.8 0L319.7 384c-.5-.3-.5-.7 0-1l23.1-13.3c.5-.3 1.3-.3 1.8 0z"/></g></g><g id="XMLID_66_"><g id="XMLID_98_"><g id="XMLID_102_"><path id="XMLID_104_" class="76hfgf" d="M428.3 456l-19.2 32.9c1.5 0 3.1-.3 4.3-1l55.6-32.1c2.4-1.4 4.3-4.7 4.3-7.4V445l-45 11z"/><path id="XMLID_103_" class="76hfgf" d="M364.2 456v3.4c0 2.7 1.9 6 4.3 7.4l36.4 21.1c1.2.7 2.7 1 4.3 1l19.2-32.9h-64.2z"/></g><path id="XMLID_101_" class="yjgfre876f" d="M404.8 481l-38.9-22.6c-2.4-1.4-2.4-3.6 0-4.9L424 420c2.4-1.4 6.2-1.4 8.5 0l38.9 22.5c2.4 1.4 2.4 3.6 0 4.9l-58 33.6c-2.4 1.4-6.2 1.4-8.6 0z"/></g></g><g id="XMLID_2_"><g id="XMLID_3_"><g id="XMLID_5_"><path id="XMLID_7_" class="76hfgf" d="M261.4 467l-22.3 38.1c1.8 0 3.6-.4 4.9-1.2l64.5-37.2c2.7-1.6 4.9-5.4 4.9-8.6v-3.9l-52 12.8z"/><path id="XMLID_6_" class="76hfgf" d="M187 467v3.9c0 3.2 2.2 7 4.9 8.6l42.2 24.5c1.4.8 3.2 1.2 4.9 1.2l22.3-38.1H187v-.1z"/></g><path id="XMLID_4_" class="yjgfre876f" d="M234.2 496l-45.1-26.2c-2.7-1.6-2.7-4.1 0-5.7l67.4-38.9c2.7-1.6 7.2-1.6 9.9 0l45.1 26.1c2.7 1.6 2.7 4.1 0 5.7l-67.4 39c-2.8 1.6-7.2 1.6-9.9 0z"/></g></g></g><circle class="st9" cx="139.1" cy="174.2" r="24.6"/><circle class="st2" cx="367.7" cy="138.3" r="55.3"/><path class="st2" d="M311.1 142.3l4.8 15.5 104.8-35-4.8-14.9-104 34.5"/><circle class="kuyer7675" cx="364.6" cy="128.5" r="55.3"/><path class="st4" d="M349.2 104.6c.7-2.1 1.3-4.1 2-6.2.1 0 .3.1.4.1 3.7 1.2 7.3 2.4 11 3.6.4.1.4.1.5-.3.9-2.8 1.8-5.7 2.8-8.5.1-.4.1-.4.5-.3 1.5.5 3.1 1 4.6 1.5h.1c.2 0 .3.2.2.4 0 .1-.1.2-.1.3l-2.7 8.4c-.1.3-.1.3.2.4 1.5.5 2.9.9 4.4 1.4.5.1.5.1.6-.3.9-2.8 1.8-5.7 2.8-8.5.1-.4.1-.4.5-.2 1.5.5 3 1 4.6 1.5.4.1.4.1.3.6-.9 2.9-1.9 5.7-2.8 8.6-.1.3-.1.3.2.5 1.5.5 3 1.1 4.3 2 4.6 3 6.8 7.2 6.2 12.7-.2 2.2-1.2 4-3.1 5.4-1.2.9-2.6 1.6-4 2.1-.3.1-.3.1-.1.3.9.9 1.8 1.9 2.5 2.9 1.1 1.5 1.9 3.1 2.1 5 .1 1.3 0 2.6-.3 3.9-.6 2.5-1.8 4.6-3.6 6.3-2.3 2.1-5 3.3-8.1 3.8-3.3.5-6.6.1-9.8-.8-.7-.2-.7-.2-.9.5-.9 2.7-1.8 5.5-2.7 8.2 0 .1-.1.3-.1.4-1.8-.6-3.6-1.2-5.3-1.7 0-.1.1-.3.1-.4.9-2.9 1.9-5.7 2.8-8.6.1-.3.1-.3-.2-.4-1.5-.5-3-1-4.5-1.4-.4-.1-.4-.1-.5.2-.9 2.8-1.9 5.7-2.8 8.5 0 .1-.1.3-.1.4-1.8-.6-3.6-1.2-5.3-1.7 0-.1.1-.3.1-.4.9-2.8 1.8-5.7 2.8-8.5.1-.4.1-.4-.3-.5-3.7-1.2-7.3-2.4-11-3.6-.1 0-.3-.1-.4-.1 0-.1 0-.1.1-.2s.1-.2.2-.2c1.1-1.9 2.2-3.7 3.3-5.6.1-.2.3-.3.5-.2 1.7.6 3.4 1.1 5.2 1.7.4.1.4.1.5-.2l9.6-29.7c.1-.4.1-.4-.2-.5-2.2-.7-4.5-1.5-6.7-2.2-.1-.3-.3-.3-.4-.4zm9.4 29.5c-.7 2.1-1.3 4.1-2 6.2-.1.3-.1.3.2.5 2.9 1 5.9 1.9 8.8 2.9 1.1.4 2.3.6 3.5.6 1.6 0 3.1-.3 4.4-1.4 1.3-1 2-2.4 2.3-3.9.5-2.2-.1-4.1-1.6-5.6-1.3-1.3-2.8-2.1-4.5-2.6-2.9-1-5.8-1.9-8.7-2.8-.3-.1-.3-.1-.5.3-.6 1.7-1.3 3.7-1.9 5.8zm5.8-18c-.6 1.8-1.2 3.7-1.8 5.5-.1.3-.1.3.2.4 2.3.7 4.5 1.5 6.8 2.2 1 .3 2 .5 3 .4 2.5-.1 4.5-1.1 5.5-3.5.8-1.9.7-3.8-.5-5.6-1.1-1.6-2.6-2.5-4.4-3.1-2.2-.7-4.4-1.4-6.5-2.1-.4-.1-.4-.1-.5.3-.6 1.8-1.2 3.6-1.8 5.5z" id="vhrj0A_6_"/><path class="76hfgf" d="M411.2 241.9v103c0 5.5-4.4 9.9-9.9 9.9s-9.9-4.4-9.9-9.9v-103c0-5.5 4.4-9.9 9.9-9.9s9.9 4.4 9.9 9.9zM452.6 201.8v36.8c0 5.5-4.4 9.9-9.9 9.9s-9.9-4.4-9.9-9.9v-36.8c0-5.5 4.4-9.9 9.9-9.9 5.4 0 9.9 4.4 9.9 9.9z"/><circle class="kuyer7675" cx="459" cy="267.6" r="34.8"/><g id="vhrj0A_7_"><path class="st1" d="M439.8 256.2c-.3-1.7-.6-3.3-.9-5 .1 0 .2-.1.3-.1l8.7-1.5c.3-.1.3-.1.3-.4-.4-2.3-.8-4.5-1.2-6.8-.1-.3-.1-.3.2-.4 1.2-.2 2.4-.4 3.7-.6h.1c.2-.1.3 0 .3.2v.2c.4 2.2.8 4.5 1.2 6.7 0 .2.1.3.3.2 1.2-.2 2.3-.4 3.5-.6.4-.1.4-.1.3-.4-.4-2.3-.8-4.5-1.2-6.8-.1-.3 0-.3.2-.3l3.6-.6c.3-.1.3-.1.4.3.4 2.3.8 4.5 1.2 6.8 0 .3.1.3.3.2 1.2-.2 2.4-.3 3.7-.2 4.2.4 7.2 2.5 8.8 6.4.6 1.6.6 3.2-.2 4.8-.5 1.1-1.2 2-2 2.9-.2.2-.2.2.1.2.9.3 1.9.6 2.8 1.1 1.3.6 2.4 1.4 3.3 2.7.6.9.9 1.8 1.2 2.8.5 1.9.4 3.7-.2 5.6-.8 2.3-2.2 4-4.1 5.5-2.1 1.6-4.4 2.5-7 3-.5.1-.5.1-.4.7.4 2.2.8 4.4 1.1 6.5v.3c-1.4.2-2.8.5-4.2.7 0-.1 0-.2-.1-.3-.4-2.3-.8-4.6-1.2-6.8 0-.3-.1-.3-.3-.2l-3.6.6c-.3 0-.3 0-.2.3.4 2.3.8 4.5 1.2 6.8v.3c-1.4.2-2.8.5-4.2.7 0-.1 0-.2-.1-.3-.4-2.3-.8-4.5-1.2-6.8-.1-.3-.1-.3-.4-.3l-8.7 1.5h-.3v-.2-.2c.1-1.7.2-3.4.3-5 0-.2.1-.3.3-.3 1.4-.2 2.8-.5 4.1-.7.3-.1.3-.1.2-.3-1.4-7.9-2.7-15.8-4.1-23.7 0-.3 0-.3-.3-.2-1.8.3-3.6.6-5.3.9-.1.1-.2.1-.3.1zm16.9 16.7c.3 1.6.6 3.3.9 4.9 0 .3 0 .3.3.2 2.3-.4 4.7-.8 7-1.2.9-.2 1.8-.4 2.6-.8 1.1-.6 2-1.3 2.5-2.5.5-1.1.5-2.3.1-3.5-.5-1.6-1.5-2.7-3.1-3.3-1.3-.4-2.7-.4-4-.2l-6.9 1.2c-.3 0-.3 0-.2.3.3 1.7.5 3.3.8 4.9zm-2.5-14.3c.3 1.5.5 2.9.8 4.4 0 .3.1.3.3.2l5.4-.9c.8-.1 1.5-.4 2.2-.8 1.7-1 2.6-2.4 2.5-4.4-.1-1.6-.9-2.9-2.4-3.6-1.3-.7-2.7-.8-4.1-.5-1.7.3-3.5.6-5.2.9-.3.1-.3.1-.2.3.2 1.4.5 2.9.7 4.4z"/></g><path class="st1" d="M434 243.4c1.7 3 4.9 5.1 8.7 5.1 5.5 0 9.9-4.4 9.9-9.9v-5.2c-7.3 1.4-13.7 4.9-18.6 10z"/><path class="76hfgf" d="M228.1 235.2v15.5c0 5.1 4.1 9.2 9.2 9.2h1.3c5.1 0 9.2-4.1 9.2-9.2v-8.1c-5.9-3.7-12.6-6.3-19.7-7.4z"/><g><path class="kuyer7675" d="M455.3 339.3c0-5.1-4.1-9.2-9.2-9.2h-1.3c-5.1 0-9.2 4.1-9.2 9.2v55.8l19.8 11.5-.1-67.3z"/><path class="76hfgf" d="M444.8 416.8h1.3c5.1 0 9.2-4.1 9.2-9.2v-1l-19.8-11.5v12.4c0 5.2 4.2 9.3 9.3 9.3z"/></g><path fill="none" stroke="#0ac18e" stroke-width="4" stroke-linecap="round" stroke-miterlimit="10" d="M166.8 289.7V345"/><path fill="none" stroke="#00382e" stroke-width="4" stroke-linecap="round" stroke-miterlimit="10" d="M197.1 321.9v70.5"/><path class="st9" d="M415.4 127.1v83.5M263.2 197.6v26"/></svg>