<?xml version="1.0" encoding="utf-8"?>
<!-- Generator: Adobe Illustrator 24.0.1, SVG Export Plug-In . SVG Version: 6.00 Build 0)  -->
<svg version="1.1" id="Capa_1" xmlns="http://www.w3.org/2000/svg" xmlns:xlink="http://www.w3.org/1999/xlink" x="0px" y="0px"
	 viewBox="0 0 612.8 612.8" style="enable-background:new 0 0 612.8 612.8;" xml:space="preserve">
<style type="text/css">
	.st0{fill:#BED8E2;}
	.st1{fill:#0AC18E;}
	.st2{fill:#9DC4D3;}
	.st3{fill:#FFFFFF;}
	.st4{fill:#75ACC1;}
	.st5{fill:#005354;}
	.st6{fill:#00976D;}
	.st7{fill:#8AE2C9;}
	.st8{fill:#00382E;}
</style>
<g>
	<path class="st0" d="M489,266.8c-19.4,0-35.1-15.7-35.1-35.1c0-19.4,15.7-35.1,35.1-35.1s35.1,15.7,35.1,35.1
		C524.1,251.1,508.4,266.8,489,266.8z M489,200.6c-17.1,0-31.1,14-31.1,31.1s14,31.1,31.1,31.1s31.1-14,31.1-31.1
		S506.1,200.6,489,200.6z"/>
</g>
<g>
	<path class="st1" d="M162.4,493.5l131.5,76.1c2.1,1.2,4.7,1.2,6.9,0l170.6-96.3c4.7-2.6,4.7-9.3,0.1-12L340,385.2
		c-2.1-1.2-4.7-1.2-6.9,0l-170.6,96.3C157.8,484.1,157.8,490.8,162.4,493.5z"/>
</g>
<g>
	<polygon class="st0" points="159,154.4 159,486.6 296.4,565.8 474.8,467 474.8,134.2 366.7,141.2 	"/>
</g>
<g>
	<g>
		<g id="SVGID_1_">
			<path class="st2" d="M162.4,160.6l131.5,76.1c2.1,1.2,4.7,1.2,6.9,0l170.6-96.3c4.7-2.6,4.7-9.3,0.1-12L339.9,52.3
				c-2.1-1.2-4.7-1.2-6.9,0l-170.6,96.3C157.8,151.2,157.8,158,162.4,160.6z"/>
		</g>
	</g>
</g>
<g>
	<g>
		<path class="st1" d="M159.4,330.6h-1.7c-4.1,0-7.4-3.3-7.4-7.4c0-1.6-1-2.9-2.5-3.3c-3.5-1-6.2-2.1-8.6-3.4
			c-0.2-0.1-0.5-0.3-0.7-0.4c-0.1-0.1-0.3-0.2-0.4-0.3l-0.1-0.1c-1.3-0.8-3.1-0.6-4.1,0.5c-2.9,2.9-7.6,2.9-10.4,0l-1.2-1.2
			c-2.9-2.9-2.9-7.6,0-10.4c1.1-1.1,1.3-2.7,0.6-4c-1.8-3.1-3.2-6.4-4.2-10.1c-0.4-1.4-1.7-2.4-3.2-2.4c-4.1,0-7.4-3.3-7.4-7.4v-1.7
			c0-4.1,3.3-7.4,7.4-7.4c1.6,0,2.9-1,3.3-2.5c1-3.5,2.1-6.2,3.4-8.6c0.1-0.2,0.3-0.5,0.4-0.7c0.1-0.1,0.2-0.3,0.3-0.4l0.1-0.1
			c0.8-1.3,0.6-3.1-0.5-4.1c-2.9-2.9-2.9-7.6,0-10.4l1.2-1.2c2.9-2.9,7.6-2.9,10.4,0c1.1,1.1,2.7,1.3,4,0.6
			c3.1-1.8,6.4-3.2,10.1-4.2c1.4-0.4,2.4-1.7,2.4-3.2c0-4.1,3.3-7.4,7.4-7.4h1.7c4.1,0,7.4,3.3,7.4,7.4c0,1.6,1,2.9,2.5,3.3
			c3.5,1,6.2,2.1,8.6,3.4c0.2,0.1,0.5,0.3,0.7,0.4c0.1,0.1,0.3,0.2,0.4,0.3l0.1,0.1c1.3,0.8,3.1,0.6,4.1-0.5c2.9-2.9,7.6-2.9,10.4,0
			l1.2,1.2c2.9,2.9,2.9,7.6,0,10.4c-1.1,1.1-1.3,2.7-0.6,4c1.8,3.1,3.2,6.4,4.2,10.1c0.4,1.4,1.7,2.4,3.2,2.4c4.1,0,7.4,3.3,7.4,7.4
			v1.7c0,4.1-3.3,7.4-7.4,7.4c-1.5,0-2.8,1.1-3.3,2.6c-1,3.4-2.1,6.1-3.4,8.5c-0.1,0.2-0.3,0.5-0.4,0.7c-0.1,0.1-0.2,0.3-0.3,0.4
			l-0.1,0.1c-0.8,1.3-0.6,3.1,0.5,4.1c1.4,1.4,2.2,3.2,2.2,5.2s-0.8,3.8-2.2,5.2l-1.2,1.2c-2.9,2.9-7.6,2.9-10.4,0
			c-1.1-1.1-2.7-1.3-4-0.6c-3.1,1.8-6.4,3.2-10.1,4.2c-1.4,0.4-2.4,1.7-2.4,3.2C166.8,327.3,163.5,330.6,159.4,330.6z M139.9,312.3
			c0.2,0.1,0.5,0.3,0.7,0.4c0.1,0.1,0.3,0.2,0.4,0.3c2.2,1.2,4.6,2.1,7.8,3.1c3.2,0.8,5.4,3.7,5.4,7.1c0,1.9,1.5,3.4,3.4,3.4h1.7
			c1.9,0,3.4-1.5,3.4-3.4c0-3.3,2.2-6.2,5.4-7c3.3-0.9,6.3-2.1,9.1-3.8c2.9-1.6,6.5-1.1,8.8,1.2c1.3,1.3,3.5,1.3,4.8,0l1.2-1.2
			c0.6-0.6,1-1.5,1-2.4s-0.4-1.7-1-2.4c-2.3-2.3-2.8-6-1.1-8.9c0.1-0.2,0.3-0.5,0.4-0.7c0.1-0.1,0.2-0.3,0.3-0.4
			c1.2-2.2,2.1-4.6,3.1-7.8c1-3.2,3.9-5.4,7.1-5.4c1.9,0,3.4-1.5,3.4-3.4v-1.7c0-1.9-1.5-3.4-3.4-3.4c-3.3,0-6.2-2.2-7-5.4
			c-0.9-3.3-2.1-6.3-3.8-9.1c-1.6-2.9-1.1-6.5,1.2-8.8c1.3-1.3,1.3-3.5,0-4.8l-1.2-1.2c-1.3-1.3-3.5-1.3-4.8,0
			c-2.3,2.3-6,2.8-8.9,1.1c-0.2-0.1-0.5-0.3-0.7-0.4c-0.1-0.1-0.3-0.2-0.4-0.3c-2.2-1.2-4.6-2.1-7.8-3.1c-3.2-0.8-5.4-3.7-5.4-7.1
			c0-1.9-1.5-3.4-3.4-3.4h-1.7c-1.9,0-3.4,1.5-3.4,3.4c0,3.3-2.2,6.2-5.4,7c-3.3,0.9-6.3,2.1-9.1,3.8c-2.9,1.6-6.5,1.1-8.8-1.2
			c-1.3-1.3-3.5-1.3-4.8,0l-1.2,1.2c-1.3,1.3-1.3,3.5,0,4.8c2.3,2.3,2.8,6,1.1,8.9c-0.1,0.2-0.3,0.5-0.4,0.7
			c-0.1,0.1-0.2,0.3-0.3,0.4c-1.2,2.2-2.1,4.6-3.1,7.8c-0.8,3.2-3.7,5.4-7.1,5.4c-1.9,0-3.4,1.5-3.4,3.4v1.7c0,1.9,1.5,3.4,3.4,3.4
			c3.3,0,6.2,2.2,7,5.4c0.9,3.3,2.1,6.3,3.8,9.1c1.6,2.9,1.1,6.5-1.2,8.8c-1.3,1.3-1.3,3.5,0,4.8l1.2,1.2c1.3,1.3,3.5,1.3,4.8,0
			C133.4,311.2,137,310.7,139.9,312.3z M192.7,299.7L192.7,299.7L192.7,299.7z"/>
	</g>
	<g>
		<g>
			<path class="st1" d="M158.6,300.9c-11.4,0-20.7-9.3-20.7-20.7s9.3-20.7,20.7-20.7s20.7,9.3,20.7,20.7S170,300.9,158.6,300.9z
				 M158.6,263.5c-9.2,0-16.7,7.5-16.7,16.7c0,9.2,7.5,16.7,16.7,16.7c9.2,0,16.7-7.5,16.7-16.7C175.3,271,167.8,263.5,158.6,263.5z
				"/>
		</g>
	</g>
</g>
<g>
	<path class="st3" d="M297.3,239.6c-1.5,0-3-0.4-4.4-1.2l-109.7-60.2c-1-0.5-1.3-1.7-0.8-2.7c0.5-1,1.7-1.3,2.7-0.8l109.7,60.2
		c1.5,0.9,3.4,0.9,5,0l170.6-96.3c1-0.5,2.2-0.2,2.7,0.8c0.5,1,0.2,2.2-0.8,2.7l-170.6,96.3C300.4,239.2,298.8,239.6,297.3,239.6z"
		/>
</g>
<g>
	<path class="st3" d="M297.8,567.8c-1.1,0-2-0.9-2-2V237.6c0-1.1,0.9-2,2-2s2,0.9,2,2v328.2C299.8,566.9,298.9,567.8,297.8,567.8z"
		/>
</g>
<g>
	<path class="st2" d="M455.8,239.5L324.1,314c-5.5,3.1-12.4-0.9-12.4-7.2v-37.6c0-3,1.6-5.7,4.2-7.2l131.7-74.5
		c5.5-3.1,12.4,0.9,12.4,7.2v37.6C460,235.3,458.3,238,455.8,239.5z"/>
</g>
<g>
	<path class="st4" d="M455.8,239.5L324.1,314c-5.5,3.1-12.4-0.9-12.4-7.2v-37.6c0-3,1.6-5.7,4.2-7.2l131.7-74.5
		c5.5-3.1,12.4,0.9,12.4,7.2v37.6C460,235.3,458.3,238,455.8,239.5z"/>
</g>
<g>
	<path class="st2" d="M456,192.1c0-2.1-0.8-4-2-5.4c-2-0.6-4.3-0.4-6.4,0.8L315.9,262c-2.6,1.5-4.2,4.2-4.2,7.2v37.6
		c0,2.1,0.8,4,2,5.4c2,0.6,4.3,0.4,6.4-0.8l131.7-74.5c2.6-1.5,4.2-4.2,4.2-7.2V192.1z"/>
</g>
<g>
	<path class="st5" d="M324.6,276.4c-0.7,0-1.4-0.4-1.7-1c-0.5-1-0.2-2.2,0.8-2.7L371,246c1-0.5,2.2-0.2,2.7,0.8
		c0.5,1,0.2,2.2-0.8,2.7l-47.4,26.7C325.3,276.3,324.9,276.4,324.6,276.4z"/>
</g>
<g>
	<path class="st3" d="M324.6,289.8c-0.7,0-1.4-0.4-1.7-1c-0.5-1-0.2-2.2,0.8-2.7l47.4-26.8c1-0.5,2.2-0.2,2.7,0.8
		c0.5,1,0.2,2.2-0.8,2.7l-47.4,26.8C325.3,289.7,324.9,289.8,324.6,289.8z"/>
</g>
<g>
	<path class="st1" d="M443.2,210.1l-9.4,5.3c-0.3,0.1-0.4,0.4-0.4,0.7V228c0,0.6,0.7,1,1.2,0.7l9.4-5.3c0.3-0.1,0.4-0.4,0.4-0.7
		v-11.9C444.4,210.2,443.7,209.8,443.2,210.1z"/>
</g>
<g>
	<path class="st4" d="M455.8,319.9l-131.7,74.5c-5.5,3.1-12.4-0.9-12.4-7.2v-37.6c0-3,1.6-5.7,4.2-7.2l131.7-74.5
		c5.5-3.1,12.4,0.9,12.4,7.2v37.6C460,315.7,458.3,318.5,455.8,319.9z"/>
</g>
<g>
	<path class="st2" d="M456,272.6c0-2.1-0.8-4-2-5.4c-2-0.6-4.3-0.4-6.4,0.8l-131.7,74.5c-2.6,1.5-4.2,4.2-4.2,7.2v37.6
		c0,2.1,0.8,4,2,5.4c2,0.6,4.3,0.4,6.4-0.8l131.7-74.5c2.6-1.5,4.2-4.2,4.2-7.2V272.6z"/>
</g>
<g>
	<path class="st5" d="M324.6,354.4c-0.7,0-1.4-0.4-1.7-1c-0.5-1-0.2-2.2,0.8-2.7L371,324c1-0.5,2.2-0.2,2.7,0.8
		c0.5,1,0.2,2.2-0.8,2.7l-47.4,26.7C325.3,354.3,324.9,354.4,324.6,354.4z"/>
</g>
<g>
	<path class="st5" d="M324.6,367.8c-0.7,0-1.4-0.4-1.7-1c-0.5-1-0.2-2.2,0.8-2.7l47.4-26.7c1-0.5,2.2-0.2,2.7,0.8
		c0.5,1,0.2,2.2-0.8,2.7l-47.4,26.7C325.3,367.7,324.9,367.8,324.6,367.8z"/>
</g>
<g>
	<path class="st1" d="M443.2,291.1l-9.4,5.3c-0.3,0.1-0.4,0.4-0.4,0.7V309c0,0.6,0.7,1,1.2,0.7l9.4-5.3c0.3-0.1,0.4-0.4,0.4-0.7
		v-11.9C444.4,291.2,443.7,290.8,443.2,291.1z"/>
</g>
<g>
	<path class="st4" d="M455.8,403.1l-131.7,74.5c-5.5,3.1-12.4-0.9-12.4-7.2v-37.6c0-3,1.6-5.7,4.2-7.2l131.7-74.5
		c5.5-3.1,12.4,0.9,12.4,7.2v37.6C460,398.9,458.3,401.7,455.8,403.1z"/>
</g>
<g>
	<path class="st2" d="M456,355.8c0-2.1-0.8-4-2-5.4c-2-0.6-4.3-0.4-6.4,0.8l-131.7,74.5c-2.6,1.5-4.2,4.2-4.2,7.2v37.6
		c0,2.1,0.8,4,2,5.4c2,0.6,4.3,0.4,6.4-0.8l131.7-74.5c2.6-1.5,4.2-4.2,4.2-7.2V355.8z"/>
</g>
<g>
	<path class="st5" d="M324.6,436.7c-0.7,0-1.4-0.4-1.7-1c-0.5-1-0.2-2.2,0.8-2.7l47.4-26.8c1-0.5,2.2-0.2,2.7,0.8
		c0.5,1,0.2,2.2-0.8,2.7l-47.4,26.8C325.3,436.6,324.9,436.7,324.6,436.7z"/>
</g>
<g>
	<path class="st5" d="M324.6,450.1c-0.7,0-1.4-0.4-1.7-1c-0.5-1-0.2-2.2,0.8-2.7l47.4-26.8c1-0.5,2.2-0.2,2.7,0.8
		c0.5,1,0.2,2.2-0.8,2.7l-47.4,26.8C325.3,450,324.9,450.1,324.6,450.1z"/>
</g>
<g>
	<path class="st1" d="M443.2,374.9l-9.4,5.3c-0.3,0.1-0.4,0.4-0.4,0.7v11.9c0,0.6,0.7,1,1.2,0.7l9.4-5.3c0.3-0.1,0.4-0.4,0.4-0.7
		v-11.9C444.4,375,443.7,374.6,443.2,374.9z"/>
</g>
<g>
	<g>
		
			<ellipse transform="matrix(0.1735 -0.9848 0.9848 0.1735 277.2649 584.382)" class="st6" cx="486.8" cy="127" rx="51.6" ry="51.6"/>
	</g>
	<g>
		<polyline class="st6" points="441.9,155 452.6,165.7 523.8,91.1 513.4,80.9 442.5,154.7 		"/>
	</g>
	<g>
		
			<ellipse transform="matrix(0.7071 -0.7071 0.7071 0.7071 55.5238 374.6463)" class="st1" cx="480" cy="120.3" rx="51.6" ry="51.6"/>
	</g>
	<g id="vhrj0A_4_">
		<g>
			<g>
				<path class="st3" d="M456.9,107.2c-0.3-2-0.7-4-1-6c0.1,0,0.3-0.1,0.4-0.1c3.5-0.6,7.1-1.2,10.6-1.8c0.4-0.1,0.4-0.1,0.3-0.5
					c-0.5-2.7-1-5.5-1.4-8.2c-0.1-0.4-0.1-0.4,0.3-0.4c1.5-0.3,3-0.5,4.4-0.8h0.1c0.2-0.1,0.3,0,0.3,0.2c0,0.1,0,0.2,0,0.3
					c0.5,2.7,0.9,5.4,1.4,8.2c0.1,0.3,0.1,0.3,0.4,0.3c1.4-0.2,2.8-0.5,4.2-0.7c0.4-0.1,0.4-0.1,0.4-0.5c-0.5-2.7-1-5.5-1.4-8.2
					c-0.1-0.4-0.1-0.4,0.3-0.4c1.5-0.3,2.9-0.5,4.4-0.8c0.4-0.1,0.4-0.1,0.5,0.3c0.5,2.8,1,5.5,1.4,8.3c0.1,0.3,0.1,0.3,0.4,0.3
					c1.5-0.3,2.9-0.3,4.4-0.2c5.1,0.4,8.7,3,10.7,7.8c0.8,2,0.7,3.9-0.2,5.8c-0.6,1.3-1.4,2.4-2.4,3.5c-0.2,0.2-0.2,0.2,0.1,0.3
					c1.1,0.4,2.3,0.8,3.4,1.3c1.6,0.8,3,1.8,4,3.2c0.7,1,1.1,2.2,1.5,3.4c0.6,2.3,0.5,4.5-0.3,6.8c-1,2.7-2.7,4.9-5,6.6
					c-2.5,1.9-5.4,3-8.5,3.6c-0.7,0.1-0.7,0.1-0.5,0.8c0.5,2.6,0.9,5.3,1.4,7.9c0,0.1,0,0.3,0.1,0.4c-1.7,0.3-3.4,0.6-5.1,0.9
					c0-0.1-0.1-0.3-0.1-0.4c-0.5-2.8-1-5.5-1.4-8.3c-0.1-0.3-0.1-0.3-0.4-0.3c-1.4,0.2-2.9,0.5-4.3,0.7c-0.3,0.1-0.3,0.1-0.3,0.4
					c0.5,2.8,1,5.5,1.4,8.3c0,0.1,0,0.3,0.1,0.4c-1.7,0.3-3.4,0.6-5.1,0.9c0-0.1-0.1-0.3-0.1-0.4c-0.5-2.7-1-5.5-1.4-8.2
					c-0.1-0.4-0.1-0.4-0.5-0.3c-3.5,0.6-7.1,1.2-10.6,1.8c-0.1,0-0.3,0-0.4,0c0-0.1,0-0.1,0-0.2c0-0.1,0-0.2,0-0.3
					c0.1-2,0.2-4.1,0.3-6.1c0-0.3,0.1-0.4,0.4-0.4c1.7-0.3,3.3-0.6,5-0.9c0.4-0.1,0.4-0.1,0.3-0.4c-1.7-9.6-3.3-19.1-5-28.7
					c-0.1-0.3-0.1-0.3-0.4-0.3c-2.2,0.4-4.3,0.7-6.5,1.1C457.1,107.2,457,107.2,456.9,107.2z M477.5,127.5c0.3,2,0.7,4,1,6
					c0.1,0.3,0.1,0.3,0.4,0.3c2.8-0.5,5.7-1,8.5-1.5c1.1-0.2,2.1-0.5,3.1-1c1.4-0.7,2.5-1.6,3.1-3.1c0.6-1.4,0.6-2.8,0.2-4.3
					c-0.6-2-1.8-3.3-3.8-4c-1.6-0.5-3.2-0.5-4.9-0.2c-2.8,0.5-5.6,1-8.4,1.4c-0.3,0.1-0.3,0.1-0.3,0.4
					C476.8,123.5,477.1,125.5,477.5,127.5z M474.4,110.1c0.3,1.8,0.6,3.6,0.9,5.4c0.1,0.3,0.1,0.3,0.4,0.3c2.2-0.4,4.4-0.8,6.6-1.1
					c0.9-0.2,1.8-0.5,2.6-1c2-1.2,3.2-2.9,3-5.3c-0.2-2-1.1-3.5-2.9-4.4c-1.6-0.8-3.3-0.9-5-0.6c-2.1,0.3-4.2,0.7-6.3,1.1
					c-0.4,0.1-0.4,0.1-0.3,0.4C473.8,106.5,474.1,108.3,474.4,110.1z"/>
			</g>
		</g>
	</g>
</g>
<g>
	<path class="st7" d="M426.1,540.4h-97c-5.1,0-9.2-4.1-9.2-9.2l0,0c0-5.1,4.1-9.2,9.2-9.2h97c5.1,0,9.2,4.1,9.2,9.2l0,0
		C435.3,536.3,431.2,540.4,426.1,540.4z"/>
</g>
<g>
	<path class="st8" d="M233,386h-16.6c-5.1,0-9.2-4.1-9.2-9.2l0,0c0-5.1,4.1-9.2,9.2-9.2H233c5.1,0,9.2,4.1,9.2,9.2l0,0
		C242.3,381.9,238.1,386,233,386z"/>
</g>
<g>
	<path class="st3" d="M355.8,120.5h-62.5c-5.1,0-9.2-4.1-9.2-9.2l0,0c0-5.1,4.1-9.2,9.2-9.2h62.5c5.1,0,9.2,4.1,9.2,9.2l0,0
		C365.1,116.4,360.9,120.5,355.8,120.5z"/>
</g>
<g>
	<g>
		<path class="st1" d="M124.4,367.6c-5.1,0-9.2,4.1-9.2,9.2s4.1,9.2,9.2,9.2h34.3v-18.5L124.4,367.6L124.4,367.6z"/>
	</g>
	<g>
		<path class="st8" d="M196.1,376.8c0-5.1-4.1-9.2-9.2-9.2h-28.2V386h28.2C191.9,386,196.1,381.9,196.1,376.8z"/>
	</g>
</g>
</svg>
