<svg xmlns="http://www.w3.org/2000/svg" id="Capa_1" x="0" y="0" version="1.1" viewBox="0 0 612.8 612.8" xml:space="preserve"><style>.regr{fill:#bed8e2}.ergiuhriug{fill:#0ac18e}.uyf6754654{fill:#9dc4d3}.egy342342{fill:#fff}.ekghjrl{fill:#005354}.rge898678{fill:#00976d}.rty67{fill:#00382e}</style><path d="M489 266.8c-19.4 0-35.1-15.7-35.1-35.1 0-19.4 15.7-35.1 35.1-35.1s35.1 15.7 35.1 35.1c0 19.4-15.7 35.1-35.1 35.1zm0-66.2c-17.1 0-31.1 14-31.1 31.1s14 31.1 31.1 31.1 31.1-14 31.1-31.1-14-31.1-31.1-31.1z" class="regr"/><path d="M162.4 493.5l131.5 76.1c2.1 1.2 4.7 1.2 6.9 0l170.6-96.3c4.7-2.6 4.7-9.3.1-12L340 385.2c-2.1-1.2-4.7-1.2-6.9 0l-170.6 96.3c-4.7 2.6-4.7 9.3-.1 12z" class="ergiuhriug"/><path d="M159 154.4v332.2l137.4 79.2L474.8 467V134.2l-108.1 7z" class="regr"/><path id="SVGID_1_" d="M162.4 160.6l131.5 76.1c2.1 1.2 4.7 1.2 6.9 0l170.6-96.3c4.7-2.6 4.7-9.3.1-12L339.9 52.3c-2.1-1.2-4.7-1.2-6.9 0l-170.6 96.3c-4.6 2.6-4.6 9.4 0 12z" class="uyf6754654"/><path d="M159.4 330.6h-1.7c-4.1 0-7.4-3.3-7.4-7.4 0-1.6-1-2.9-2.5-3.3-3.5-1-6.2-2.1-8.6-3.4-.2-.1-.5-.3-.7-.4-.1-.1-.3-.2-.4-.3l-.1-.1c-1.3-.8-3.1-.6-4.1.5-2.9 2.9-7.6 2.9-10.4 0l-1.2-1.2c-2.9-2.9-2.9-7.6 0-10.4 1.1-1.1 1.3-2.7.6-4-1.8-3.1-3.2-6.4-4.2-10.1-.4-1.4-1.7-2.4-3.2-2.4-4.1 0-7.4-3.3-7.4-7.4V279c0-4.1 3.3-7.4 7.4-7.4 1.6 0 2.9-1 3.3-2.5 1-3.5 2.1-6.2 3.4-8.6.1-.2.3-.5.4-.7.1-.1.2-.3.3-.4l.1-.1c.8-1.3.6-3.1-.5-4.1-2.9-2.9-2.9-7.6 0-10.4l1.2-1.2c2.9-2.9 7.6-2.9 10.4 0 1.1 1.1 2.7 1.3 4 .6 3.1-1.8 6.4-3.2 10.1-4.2 1.4-.4 2.4-1.7 2.4-3.2 0-4.1 3.3-7.4 7.4-7.4h1.7c4.1 0 7.4 3.3 7.4 7.4 0 1.6 1 2.9 2.5 3.3 3.5 1 6.2 2.1 8.6 3.4.2.1.5.3.7.4.1.1.3.2.4.3l.1.1c1.3.8 3.1.6 4.1-.5 2.9-2.9 7.6-2.9 10.4 0l1.2 1.2c2.9 2.9 2.9 7.6 0 10.4-1.1 1.1-1.3 2.7-.6 4 1.8 3.1 3.2 6.4 4.2 10.1.4 1.4 1.7 2.4 3.2 2.4 4.1 0 7.4 3.3 7.4 7.4v1.7c0 4.1-3.3 7.4-7.4 7.4-1.5 0-2.8 1.1-3.3 2.6-1 3.4-2.1 6.1-3.4 8.5-.1.2-.3.5-.4.7-.1.1-.2.3-.3.4l-.1.1c-.8 1.3-.6 3.1.5 4.1 1.4 1.4 2.2 3.2 2.2 5.2s-.8 3.8-2.2 5.2l-1.2 1.2c-2.9 2.9-7.6 2.9-10.4 0-1.1-1.1-2.7-1.3-4-.6-3.1 1.8-6.4 3.2-10.1 4.2-1.4.4-2.4 1.7-2.4 3.2 0 4.1-3.3 7.4-7.4 7.4zm-19.5-18.3c.2.1.5.3.7.4.1.1.3.2.4.3 2.2 1.2 4.6 2.1 7.8 3.1 3.2.8 5.4 3.7 5.4 7.1 0 1.9 1.5 3.4 3.4 3.4h1.7c1.9 0 3.4-1.5 3.4-3.4 0-3.3 2.2-6.2 5.4-7 3.3-.9 6.3-2.1 9.1-3.8 2.9-1.6 6.5-1.1 8.8 1.2 1.3 1.3 3.5 1.3 4.8 0l1.2-1.2c.6-.6 1-1.5 1-2.4s-.4-1.7-1-2.4c-2.3-2.3-2.8-6-1.1-8.9.1-.2.3-.5.4-.7.1-.1.2-.3.3-.4 1.2-2.2 2.1-4.6 3.1-7.8s3.9-5.4 7.1-5.4c1.9 0 3.4-1.5 3.4-3.4v-1.7c0-1.9-1.5-3.4-3.4-3.4-3.3 0-6.2-2.2-7-5.4-.9-3.3-2.1-6.3-3.8-9.1-1.6-2.9-1.1-6.5 1.2-8.8 1.3-1.3 1.3-3.5 0-4.8l-1.2-1.2c-1.3-1.3-3.5-1.3-4.8 0-2.3 2.3-6 2.8-8.9 1.1-.2-.1-.5-.3-.7-.4-.1-.1-.3-.2-.4-.3-2.2-1.2-4.6-2.1-7.8-3.1-3.2-.8-5.4-3.7-5.4-7.1 0-1.9-1.5-3.4-3.4-3.4h-1.7c-1.9 0-3.4 1.5-3.4 3.4 0 3.3-2.2 6.2-5.4 7-3.3.9-6.3 2.1-9.1 3.8-2.9 1.6-6.5 1.1-8.8-1.2-1.3-1.3-3.5-1.3-4.8 0l-1.2 1.2c-1.3 1.3-1.3 3.5 0 4.8 2.3 2.3 2.8 6 1.1 8.9-.1.2-.3.5-.4.7-.1.1-.2.3-.3.4-1.2 2.2-2.1 4.6-3.1 7.8-.8 3.2-3.7 5.4-7.1 5.4-1.9 0-3.4 1.5-3.4 3.4v1.7c0 1.9 1.5 3.4 3.4 3.4 3.3 0 6.2 2.2 7 5.4.9 3.3 2.1 6.3 3.8 9.1 1.6 2.9 1.1 6.5-1.2 8.8-1.3 1.3-1.3 3.5 0 4.8l1.2 1.2c1.3 1.3 3.5 1.3 4.8 0 2.4-2.2 6-2.7 8.9-1.1zm52.8-12.6z" class="ergiuhriug"/><path d="M158.6 300.9c-11.4 0-20.7-9.3-20.7-20.7s9.3-20.7 20.7-20.7 20.7 9.3 20.7 20.7-9.3 20.7-20.7 20.7zm0-37.4c-9.2 0-16.7 7.5-16.7 16.7s7.5 16.7 16.7 16.7 16.7-7.5 16.7-16.7-7.5-16.7-16.7-16.7z" class="ergiuhriug"/><path d="M297.3 239.6c-1.5 0-3-.4-4.4-1.2l-109.7-60.2c-1-.5-1.3-1.7-.8-2.7.5-1 1.7-1.3 2.7-.8l109.7 60.2c1.5.9 3.4.9 5 0l170.6-96.3c1-.5 2.2-.2 2.7.8s.2 2.2-.8 2.7l-170.6 96.3c-1.3.8-2.9 1.2-4.4 1.2z" class="egy342342"/><path d="M297.8 567.8c-1.1 0-2-.9-2-2V237.6c0-1.1.9-2 2-2s2 .9 2 2v328.2c0 1.1-.9 2-2 2z" class="egy342342"/><path d="M455.8 239.5L324.1 314c-5.5 3.1-12.4-.9-12.4-7.2v-37.6c0-3 1.6-5.7 4.2-7.2l131.7-74.5c5.5-3.1 12.4.9 12.4 7.2v37.6c0 3-1.7 5.7-4.2 7.2z" class="uyf6754654"/><path d="M455.8 239.5L324.1 314c-5.5 3.1-12.4-.9-12.4-7.2v-37.6c0-3 1.6-5.7 4.2-7.2l131.7-74.5c5.5-3.1 12.4.9 12.4 7.2v37.6c0 3-1.7 5.7-4.2 7.2z" class="765tyfhgfhg"/><path d="M456 192.1c0-2.1-.8-4-2-5.4-2-.6-4.3-.4-6.4.8L315.9 262c-2.6 1.5-4.2 4.2-4.2 7.2v37.6c0 2.1.8 4 2 5.4 2 .6 4.3.4 6.4-.8l131.7-74.5c2.6-1.5 4.2-4.2 4.2-7.2v-37.6z" class="uyf6754654"/><path d="M324.6 276.4c-.7 0-1.4-.4-1.7-1-.5-1-.2-2.2.8-2.7L371 246c1-.5 2.2-.2 2.7.8s.2 2.2-.8 2.7l-47.4 26.7c-.2.1-.6.2-.9.2z" class="ekghjrl"/><path d="M324.6 289.8c-.7 0-1.4-.4-1.7-1-.5-1-.2-2.2.8-2.7l47.4-26.8c1-.5 2.2-.2 2.7.8s.2 2.2-.8 2.7l-47.4 26.8c-.3.1-.7.2-1 .2z" class="egy342342"/><path d="M443.2 210.1l-9.4 5.3c-.3.1-.4.4-.4.7V228c0 .6.7 1 1.2.7l9.4-5.3c.3-.1.4-.4.4-.7v-11.9c0-.6-.7-1-1.2-.7z" class="ergiuhriug"/><path d="M455.8 319.9l-131.7 74.5c-5.5 3.1-12.4-.9-12.4-7.2v-37.6c0-3 1.6-5.7 4.2-7.2l131.7-74.5c5.5-3.1 12.4.9 12.4 7.2v37.6c0 3-1.7 5.8-4.2 7.2z" class="765tyfhgfhg"/><path d="M456 272.6c0-2.1-.8-4-2-5.4-2-.6-4.3-.4-6.4.8l-131.7 74.5c-2.6 1.5-4.2 4.2-4.2 7.2v37.6c0 2.1.8 4 2 5.4 2 .6 4.3.4 6.4-.8l131.7-74.5c2.6-1.5 4.2-4.2 4.2-7.2v-37.6z" class="uyf6754654"/><path d="M324.6 354.4c-.7 0-1.4-.4-1.7-1-.5-1-.2-2.2.8-2.7L371 324c1-.5 2.2-.2 2.7.8s.2 2.2-.8 2.7l-47.4 26.7c-.2.1-.6.2-.9.2zm0 13.4c-.7 0-1.4-.4-1.7-1-.5-1-.2-2.2.8-2.7l47.4-26.7c1-.5 2.2-.2 2.7.8s.2 2.2-.8 2.7l-47.4 26.7c-.3.1-.7.2-1 .2z" class="ekghjrl"/><path d="M443.2 291.1l-9.4 5.3c-.3.1-.4.4-.4.7V309c0 .6.7 1 1.2.7l9.4-5.3c.3-.1.4-.4.4-.7v-11.9c0-.6-.7-1-1.2-.7z" class="ergiuhriug"/><path d="M455.8 403.1l-131.7 74.5c-5.5 3.1-12.4-.9-12.4-7.2v-37.6c0-3 1.6-5.7 4.2-7.2l131.7-74.5c5.5-3.1 12.4.9 12.4 7.2v37.6c0 3-1.7 5.8-4.2 7.2z" class="765tyfhgfhg"/><path d="M456 355.8c0-2.1-.8-4-2-5.4-2-.6-4.3-.4-6.4.8l-131.7 74.5c-2.6 1.5-4.2 4.2-4.2 7.2v37.6c0 2.1.8 4 2 5.4 2 .6 4.3.4 6.4-.8l131.7-74.5c2.6-1.5 4.2-4.2 4.2-7.2v-37.6z" class="uyf6754654"/><path d="M324.6 436.7c-.7 0-1.4-.4-1.7-1-.5-1-.2-2.2.8-2.7l47.4-26.8c1-.5 2.2-.2 2.7.8s.2 2.2-.8 2.7l-47.4 26.8c-.3.1-.7.2-1 .2zm0 13.4c-.7 0-1.4-.4-1.7-1-.5-1-.2-2.2.8-2.7l47.4-26.8c1-.5 2.2-.2 2.7.8s.2 2.2-.8 2.7l-47.4 26.8c-.3.1-.7.2-1 .2z" class="ekghjrl"/><path d="M443.2 374.9l-9.4 5.3c-.3.1-.4.4-.4.7v11.9c0 .6.7 1 1.2.7l9.4-5.3c.3-.1.4-.4.4-.7v-11.9c0-.6-.7-1-1.2-.7z" class="ergiuhriug"/><circle cx="486.8" cy="127" r="51.6" class="rge898678" transform="rotate(-80.008 486.817 127.004)"/><path d="M441.9 155l10.7 10.7 71.2-74.6-10.4-10.2-70.9 73.8" class="rge898678"/><circle cx="480" cy="120.3" r="51.6" class="ergiuhriug" transform="rotate(-45.001 480 120.306)"/><path id="vhrj0A_4_" d="M456.9 107.2c-.3-2-.7-4-1-6 .1 0 .3-.1.4-.1 3.5-.6 7.1-1.2 10.6-1.8.4-.1.4-.1.3-.5-.5-2.7-1-5.5-1.4-8.2-.1-.4-.1-.4.3-.4 1.5-.3 3-.5 4.4-.8h.1c.2-.1.3 0 .3.2v.3c.5 2.7.9 5.4 1.4 8.2.1.3.1.3.4.3 1.4-.2 2.8-.5 4.2-.7.4-.1.4-.1.4-.5-.5-2.7-1-5.5-1.4-8.2-.1-.4-.1-.4.3-.4 1.5-.3 2.9-.5 4.4-.8.4-.1.4-.1.5.3.5 2.8 1 5.5 1.4 8.3.1.3.1.3.4.3 1.5-.3 2.9-.3 4.4-.2 5.1.4 8.7 3 10.7 7.8.8 2 .7 3.9-.2 5.8-.6 1.3-1.4 2.4-2.4 3.5-.2.2-.2.2.1.3 1.1.4 2.3.8 3.4 1.3 1.6.8 3 1.8 4 3.2.7 1 1.1 2.2 1.5 3.4.6 2.3.5 4.5-.3 6.8-1 2.7-2.7 4.9-5 6.6-2.5 1.9-5.4 3-8.5 3.6-.7.1-.7.1-.5.8.5 2.6.9 5.3 1.4 7.9 0 .1 0 .3.1.4l-5.1.9c0-.1-.1-.3-.1-.4-.5-2.8-1-5.5-1.4-8.3-.1-.3-.1-.3-.4-.3-1.4.2-2.9.5-4.3.7-.3.1-.3.1-.3.4.5 2.8 1 5.5 1.4 8.3 0 .1 0 .3.1.4l-5.1.9c0-.1-.1-.3-.1-.4-.5-2.7-1-5.5-1.4-8.2-.1-.4-.1-.4-.5-.3-3.5.6-7.1 1.2-10.6 1.8h-.4v-.5c.1-2 .2-4.1.3-6.1 0-.3.1-.4.4-.4 1.7-.3 3.3-.6 5-.9.4-.1.4-.1.3-.4-1.7-9.6-3.3-19.1-5-28.7-.1-.3-.1-.3-.4-.3-2.2.4-4.3.7-6.5 1.1h-.6zm20.6 20.3c.3 2 .7 4 1 6 .1.3.1.3.4.3 2.8-.5 5.7-1 8.5-1.5 1.1-.2 2.1-.5 3.1-1 1.4-.7 2.5-1.6 3.1-3.1.6-1.4.6-2.8.2-4.3-.6-2-1.8-3.3-3.8-4-1.6-.5-3.2-.5-4.9-.2-2.8.5-5.6 1-8.4 1.4-.3.1-.3.1-.3.4.4 2 .7 4 1.1 6zm-3.1-17.4l.9 5.4c.1.3.1.3.4.3 2.2-.4 4.4-.8 6.6-1.1.9-.2 1.8-.5 2.6-1 2-1.2 3.2-2.9 3-5.3-.2-2-1.1-3.5-2.9-4.4-1.6-.8-3.3-.9-5-.6-2.1.3-4.2.7-6.3 1.1-.4.1-.4.1-.3.4.4 1.6.7 3.4 1 5.2z" class="egy342342"/><path fill="#8ae2c9" d="M426.1 540.4h-97c-5.1 0-9.2-4.1-9.2-9.2s4.1-9.2 9.2-9.2h97c5.1 0 9.2 4.1 9.2 9.2s-4.1 9.2-9.2 9.2z"/><path d="M233 386h-16.6c-5.1 0-9.2-4.1-9.2-9.2s4.1-9.2 9.2-9.2H233c5.1 0 9.2 4.1 9.2 9.2.1 5.1-4.1 9.2-9.2 9.2z" class="rty67"/><path d="M355.8 120.5h-62.5c-5.1 0-9.2-4.1-9.2-9.2s4.1-9.2 9.2-9.2h62.5c5.1 0 9.2 4.1 9.2 9.2.1 5.1-4.1 9.2-9.2 9.2z" class="egy342342"/><path d="M124.4 367.6c-5.1 0-9.2 4.1-9.2 9.2s4.1 9.2 9.2 9.2h34.3v-18.5l-34.3.1z" class="ergiuhriug"/><path d="M196.1 376.8c0-5.1-4.1-9.2-9.2-9.2h-28.2V386h28.2c5 0 9.2-4.1 9.2-9.2z" class="rty67"/></svg>