<svg xmlns="http://www.w3.org/2000/svg" xmlns:xlink="http://www.w3.org/1999/xlink" id="Layer_1" x="0" y="0" version="1.1" viewBox="0 0 3714.2 505.3" xml:space="preserve" style="enable-background:new 0 0 3714.2 505.3"><style type="text/css">.st0{fill:#4d4d4d}.st1{fill:#0ac18e}.st2{fill:#fff}</style><path d="M725.5,498.7c-24.1,0-48.3-0.7-72.1-2.3c-25.1-1.7-50.1-5.2-74.7-10.4V59c20.2-3.9,42.7-6.5,66.9-8.5	c24.1-2,46.6-2.9,67.5-2.9c28.1,0,53.8,2,77.3,6.2c23.5,3.9,43.7,10.8,60.7,20.5c17,9.8,30.3,22.5,39.8,38.5s14.4,35.6,14.4,58.7	c0,35.2-17,62.9-50.9,83.2c28.1,10.4,47,25.1,57.1,43.1c10.1,18.3,15.3,38.8,15.3,61.6c0,46.3-17,80.9-50.6,104.1	C842,487.3,792.2,498.7,725.5,498.7z M675.3,225.7h48.3c30.7,0,52.2-3.9,65.6-11.7c13-7.8,19.6-20.5,19.6-37.8	c0-17.9-6.8-30.3-20.2-37.5c-13.7-7.2-33.6-10.8-59.7-10.8c-8.5,0-17.6,0-27.4,0.3s-18.3,0.7-26.1,1.6	C675.3,129.8,675.3,225.7,675.3,225.7L675.3,225.7z M675.3,301.4v113.8c7.2,1,15,1.6,23.5,2s17.9,0.7,28.1,0.7	c29.7,0,53.5-4.2,71.8-12.7s27.4-24.1,27.4-47c0-20.2-7.5-34.9-22.8-43.4c-15.3-8.8-37.2-13-65.6-13h-62.3v-0.4L675.3,301.4	L675.3,301.4z" class="st0"/><path d="M1068,62.3c0,17.3-5.5,31-17,41.1c-11.1,10.1-24.5,15-39.8,15c-14.7,0.2-28.9-5.1-39.8-15	c-11.1-10.1-17-23.5-17-41.1c0-17.3,5.5-31,17-41.1c10.9-9.8,25.1-15.2,39.8-15c14.7-0.2,28.9,5.1,39.8,15	C1062.4,31.3,1068,45,1068,62.3z M1058.9,493.2h-94.6V158.8h94.6V493.2z" class="st0"/><path d="M1109.8,75.6l94.6-15.3v98.5h113.8v78.9h-113.8v117.4c0,19.9,3.6,35.9,10.4,47.6s21.2,17.9,42.4,17.9	c10.5-0.1,21-1,31.3-2.9c10.1-1.8,20-4.4,29.7-7.8l13.4,73.7c-12.4,5-25.2,9.1-38.2,12.1c-14,3.3-31,5.2-51.5,5.2	c-25.8,0-47.3-3.6-64.3-10.4s-30.7-16.6-40.8-29.4c-10.1-12.4-17.3-27.7-21.2-45.3c-4.2-19.4-6.3-39.2-6.2-59V75.6H1109.8z" class="st0"/><path d="M1331.7,326.1c-0.2-23.2,3.8-46.3,11.7-68.2c7.4-20.7,18.9-39.7,33.9-55.8c14.7-16,32.9-28.4,54.1-37.8	c21.2-9.5,45.3-14,72.4-14c17.9,0,34.2,1.6,48.9,4.9c14.8,3.2,29.2,7.8,43.1,13.7l-19.6,75.7c-9.6-3.5-19.4-6.5-29.4-8.8	c-11.7-2.7-23.6-4-35.6-3.9c-28.1,0-48.9,8.8-62.6,26.1s-20.5,40.1-20.5,68.5c0,30,6.5,53.5,19.2,69.8c13,16.6,35.6,24.8,67.5,24.8	c12.4,0,24.7-1.1,36.9-3.3c12.4-1.9,24.6-5.3,36.2-10.1l13.4,77.6c-13.4,5.4-27.2,9.4-41.4,12.1c-18.1,3.5-36.4,5.3-54.8,5.2	c-30.7,0-56.8-4.6-78.9-13.7c-22.2-9.1-40.1-21.5-54.5-37.2s-24.5-34.2-31-55.5C1334.7,373.3,1331.7,349.8,1331.7,326.1z" class="st0"/><path d="M1927.2,325.5c0,26.4-3.9,50.2-11.4,72.1s-18.6,40.4-32.9,55.8c-14.6,15.5-32.3,27.7-51.9,35.9	c-20.3,8.5-42.7,12.7-67.5,12.7c-24.5,0-47-4.2-67.2-12.7c-19.7-8.1-37.3-20.4-51.9-35.9c-14.4-15.3-25.8-34.2-33.6-55.8	c-8.2-21.9-12.1-46-12.1-72.1c0-26.4,4.2-50.2,12.4-71.8c8.2-21.5,19.6-40.1,34.2-55.1c14.8-15.3,32.5-27.5,52.2-35.6	c20.2-8.5,42.1-12.7,65.9-12.7c24.1,0,46.3,4.2,66.5,12.7s37.5,20.2,51.9,35.6c14.8,15.9,26.3,34.6,33.6,55.1	C1923,275.3,1927.2,299.1,1927.2,325.5z M1830.7,325.5c0-29.4-5.9-52.2-17.6-68.8s-28.4-25.1-49.9-25.1s-38.5,8.5-50.2,25.1	s-17.9,39.8-17.9,68.8c0,29.4,5.9,52.5,17.9,69.5c11.7,17.3,28.7,25.8,50.2,25.8s38.2-8.5,49.9-25.8S1830.7,354.5,1830.7,325.5z" class="st0"/><path d="M2068.9,62.3c0,17.3-5.5,31-17,41.1c-11.1,10.1-24.5,15-39.8,15c-14.7,0.2-28.9-5.1-39.8-15	c-11.1-10.1-17-23.5-17-41.1c0-17.3,5.5-31,17-41.1c10.9-9.8,25.1-15.2,39.8-15c14.7-0.2,28.9,5.1,39.8,15	C2063.3,31.3,2068.9,45,2068.9,62.3z M2060.1,493.2h-94.6V158.8h94.6V493.2z" class="st0"/><path d="M2113.9,170.2c16-4.6,36.9-9.1,62.3-13c26.4-4.1,53.1-6.2,79.9-6.2c28.4,0,51.9,3.6,70.8,11.1	s33.9,17.9,44.7,31.3c11.1,13.7,18.9,29.7,23.5,48.3s6.8,39.5,6.8,62.3v188.9h-94.6V315.4c0-30.7-3.9-52.2-12.1-64.9	s-23.2-18.9-45-18.9c-6.8,0-14,0.3-21.5,1s-14.4,1.3-20.2,2.3v258h-94.6V170.2L2113.9,170.2z" class="st0"/><path d="M2660.6,502c-71.8,0-126.2-19.9-163.7-59.7s-56.1-96.2-56.1-169.6c0-36.5,5.9-68.8,17.3-97.5s27.1-52.8,47-72.4	c20.2-19.8,44.5-35.1,71.1-44.7c27.4-10.1,57.4-15.3,89.7-15.3c18.6,0,35.6,1.3,50.9,4.2c13.6,2.2,27,5.4,40.1,9.5	c9.8,3,19.4,6.7,28.7,11.1c7.5,3.9,13,6.8,16.6,8.8l-28.7,79.9c-15.1-7.8-30.9-13.9-47.3-18.3c-17.9-5.2-38.5-7.5-61.3-7.5	c-15.2,0-30.3,2.6-44.7,7.5c-14.6,5.2-27.8,13.6-38.8,24.5c-11.1,11.1-20.2,25.8-27.1,43.4c-6.8,17.9-10.1,39.5-10.1,64.9	c-0.1,19.1,2.1,38.2,6.5,56.8c4.6,17.6,11.7,32.6,21.5,45.3c10.4,13.1,23.8,23.5,39.1,30.3c16,7.5,35.6,11.1,58.4,11.1	c13,0,25.9-0.8,38.8-2.6c10.4-1.4,20.6-3.4,30.7-6.2c8-2,15.9-4.6,23.5-7.8c6.8-2.9,13-5.9,18.3-8.2l27.4,79.6	c-14,8.5-33.6,16-59,22.8C2723.5,498.7,2693.9,502,2660.6,502z" class="st1"/><path d="M2956.8,150c28.1,0,51.2,3.3,69.8,9.5s33.6,15.3,44.7,27.4c11.4,12.2,19.5,27,23.8,43.1	c4.6,17,6.8,35.9,6.8,56.4v197c-13.7,2.9-32.3,6.5-56.4,10.4s-53.5,6.2-87.7,6.2c-21.5,0-41.1-2-58.7-5.9	c-17.6-3.9-32.6-10.1-45.3-18.6c-12.6-8.6-22.7-20.2-29.4-33.9c-6.8-14-10.1-31-10.1-51.5c0-19.6,3.9-35.9,11.7-49.6	c7.4-13.3,18.2-24.4,31.3-32.3c13-8.2,28.1-14,45-17.6c17.4-3.7,35.1-5.5,52.8-5.5c12.4,0,23.2,0.7,32.6,1.6	c9.5,1,17.3,2.3,23.2,4.2v-8.8c0-16-4.9-29-14.7-38.8s-26.7-14.7-50.9-14.7c-15.9,0-31.8,1.2-47.6,3.6c-15.7,2.3-29.4,5.5-40.8,9.8	l-12.1-76.3c5.5-1.6,12.4-3.6,20.5-5.5c8.2-2,17.3-3.6,27.1-5.2s19.9-2.6,30.7-3.9C2934.6,150.7,2945.7,150,2956.8,150z M2964.3,426.9c9.5,0,18.3-0.3,26.7-0.7c6.8-0.1,13.5-0.8,20.2-2v-71.8c-3.9-1-9.5-1.6-17.3-2.6c-6.9-0.9-13.9-1.3-20.9-1.3	c-8.4,0.1-16.8,0.6-25.1,1.6c-7.8,1-14.7,2.9-20.5,6.2c-5.7,2.7-10.5,6.9-14,12.1c-3.5,5.7-5.3,12.2-5.2,18.9	c0,14.7,4.9,25.1,15,30.7C2933.3,424.3,2947,426.9,2964.3,426.9z" class="st1"/><path d="M3249,425.3c17.3,0,29.7-1.6,36.9-5.2c7.2-3.3,10.8-10.1,10.8-19.6c0-7.5-4.6-14.4-14-19.9	c-9.5-5.9-23.5-12.1-42.7-19.2c-14.7-5.5-28.4-11.1-40.4-17.3c-12.1-5.9-22.5-13-30.7-21.2c-8.6-8.4-15.2-18.5-19.6-29.7	c-4.6-11.4-6.8-25.1-6.8-41.4c0-31.3,11.7-56.1,34.9-74.4s55.1-27.4,95.9-27.4c19.6,0,39.1,1.9,58.4,5.5	c18.6,3.6,33.6,7.5,44.4,11.7l-16.6,73.7c-11.8-4.1-23.7-7.5-35.9-10.1c-14.3-3.1-28.8-4.7-43.4-4.6c-29.7,0-44.4,8.2-44.4,24.8	c-0.1,3.5,0.6,6.9,2,10.1c1.7,3.4,4.3,6.4,7.5,8.5c5,3.4,10.2,6.3,15.7,8.8c8.1,4,16.5,7.4,25.1,10.4c20.9,7.8,37.8,15.3,51.5,22.8	s24.1,15.7,32,24.1c7.5,8.3,13.2,18,16.6,28.7c3.3,10.4,4.9,22.8,4.9,36.9c0,32.9-12.4,58.1-37.2,74.7c-24.8,17-59.7,25.4-105,25.4	c-29.7,0-54.5-2.6-74-7.5c-19.6-5.2-33.3-9.5-41.1-12.7l16-77c16.1,6.3,32.7,11.3,49.6,15C3215.6,423.3,3232.3,425.3,3249,425.3z" class="st1"/><path d="M3426.2,493.2V15.3L3520.8,0v160.2c8-2.5,16.2-4.6,24.5-6.2c9.5-1.9,19.3-2.9,29-2.9c27.1,0,49.6,3.6,67.5,11.1	s32.3,17.9,43.1,31.3c10.8,13.7,18.3,29.7,22.8,48.3c4.6,18.6,6.5,39.5,6.5,62.3V493h-94.6V315.4c0-30.7-3.9-52.2-11.7-64.9	s-22.5-18.9-43.4-18.9c-8-0.1-16,0.7-23.8,2.3c-7.5,1.6-14,2.9-19.9,4.9v254.1h-94.6V493.2z" class="st1"/><circle cx="249.5" cy="256.5" r="249.5" class="st1"/><path id="symbol_1_" d="M327.1,173c-12.5-28.4-41.2-34.3-76.4-28.5l-11.3-43.7l-26.7,6.9l11.1,43.7	c-7,1.8-14.2,3.3-21.3,5.3l-11.2-43.4l-26.7,6.9l11.3,43.8c-5.7,1.6-53.7,14-53.7,14l7.4,28.5c0,0,19.6-5.5,19.4-5	c10.8-2.8,15.9,2.6,18.4,7.7l31,120c0.4,3.5-0.2,9.5-7.7,11.4c0.4,0.2-19.4,5-19.4,5l2.9,33.2c0,0,47.5-12.2,53.8-13.7l11.5,44.3	l26.6-6.9l-11.4-44.6c7.4-1.7,14.4-3.5,21.4-5.3l11.4,44.4l26.7-6.9l-11.4-44.2c41-10,70-35.8,64-75.4	c-3.8-23.8-29.8-43.4-51.5-45.6C328.6,212.8,335.4,195.6,327.1,173L327.1,173z M314.3,277.4c5.3,39.2-49.1,44-67.2,48.7l-15.7-58.6	C249.6,262.8,305.4,242.9,314.3,277.4z M281.5,197.7c5.6,34.8-40.9,38.9-56,42.8l-14.3-53.2C226.3,183.4,270.1,165.4,281.5,197.7z" class="st2"/></svg>