<svg xmlns="http://www.w3.org/2000/svg" xmlns:xlink="http://www.w3.org/1999/xlink" id="Layer_1" x="0" y="0" enable-background="new 0 0 962 594.3" version="1.1" viewBox="0 0 962 594.3" xml:space="preserve"><style type="text/css">.st0{fill:#0ac18e}.st1{fill:#fff}</style><title>4-bitcoin-cash-logo-flag</title><path d="M689.3,594.3c93.5-65.6,154.6-174.2,154.6-297.1S782.8,65.6,689.3,0H962v594.3H689.3z" class="st0"/><path d="M118.4,297.1c0,122.9,61.1,231.5,154.6,297.1H0V0h273C179.5,65.6,118.4,174.2,118.4,297.1z" class="st0"/><circle cx="481" cy="297" r="296.9" class="st0"/><path id="symbol_1_" d="M573.9,197.1c-15-34-49.3-41.1-91.4-34.1L469,110.6l-31.9,8.2l13.3,52.3	c-8.4,2.2-17,3.9-25.5,6.3l-13.3-52l-31.9,8.2l13.5,52.4c-6.9,1.9-64.3,16.7-64.3,16.7l8.8,34.1c0,0,23.4-6.5,23.2-6	c12.9-3.3,19.1,3.1,22,9.2l37.1,143.6c0.5,4.2-0.2,11.3-9.3,13.7c0.5,0.3-23.2,6-23.2,6l3.5,39.7c0,0,56.9-14.5,64.4-16.4l13.7,53	l31.9-8.2l-13.7-53.4c8.8-2.1,17.3-4.2,25.6-6.3l13.6,53.1l31.9-8.2l-13.7-52.9c49.1-11.9,83.8-42.9,76.6-90.2	c-4.5-28.5-35.7-52-61.6-54.6C575.7,244.7,583.8,224,573.9,197.1L573.9,197.1z M558.6,322c6.3,46.9-58.8,52.6-80.4,58.2l-18.7-70.2	C481.1,304.5,547.9,280.7,558.6,322z M519.3,226.6c6.7,41.7-49,46.5-67,51.2l-17.1-63.6C453.3,209.5,505.6,187.9,519.3,226.6z" class="st1"/></svg>