<svg xmlns="http://www.w3.org/2000/svg" xmlns:xlink="http://www.w3.org/1999/xlink" width="788" height="788" version="1.1" viewBox="0 0 788 788"><title>bitcoin-cash-circle</title><g id="Page-1" fill="none" fill-rule="evenodd" stroke="none" stroke-width="1"><g id="bitcoin-cash-circle" fill-rule="nonzero"><circle id="Oval" cx="394" cy="394" r="394" fill="#FFF"/><path id="symbol_1_" fill="#000" d="M516.9,261.7 C497.1,216.8 451.6,207.2 395.9,216.5 L378,147.1 L335.8,158 L353.4,227.2 C342.3,230 330.9,232.4 319.6,235.6 L302,166.8 L259.8,177.7 L277.7,247.1 C268.6,249.7 192.5,269.2 192.5,269.2 L204.1,314.4 C204.1,314.4 235.1,305.7 234.8,306.4 C252,301.9 260.1,310.5 263.9,318.6 L313.1,508.8 C313.7,514.3 312.7,523.7 300.9,526.9 C301.6,527.3 270.2,534.8 270.2,534.8 L274.8,587.5 C274.8,587.5 350.2,568.2 360.1,565.7 L378.2,635.9 L420.4,625 L402.3,554.3 C413.9,551.6 425.2,548.8 436.2,545.9 L454.2,616.2 L496.4,605.3 L478.3,535.2 C543.3,519.4 589.2,478.4 579.8,415.7 C573.8,377.9 532.5,346.9 498.2,343.4 C519.3,324.7 530,297.4 516.9,261.7 L516.9,261.7 Z M496.6,427.2 C505,489.3 418.7,496.9 390.2,504.4 L365.4,411.5 C394,404 482.4,372.5 496.6,427.2 Z M444.6,300.7 C453.5,355.9 379.7,362.3 355.9,368.4 L333.3,284.1 C357.2,278.2 426.5,249.6 444.6,300.7 Z"/></g></g></svg>