<svg xmlns="http://www.w3.org/2000/svg" xmlns:xlink="http://www.w3.org/1999/xlink" width="962" height="595" version="1.1" viewBox="0 0 962 595"><title>bitcoin-cash-logo-flag</title><g id="Page-1" fill="none" fill-rule="evenodd" stroke="none" stroke-width="1"><g id="bitcoin-cash-logo-flag" fill="#FFF" fill-rule="nonzero"><path id="Shape" d="M689.3,594.3 C782.8,528.7 843.9,420.1 843.9,297.2 C843.9,174.3 782.8,65.6 689.3,0 L962,0 L962,594.3 L689.3,594.3 Z M118.4,297.1 C118.4,420 179.5,528.6 273,594.2 L0,594.2 L0,0 L273,0 C179.5,65.6 118.4,174.2 118.4,297.1 Z"/><path id="Combined-Shape" d="M481,0.1 C644.973342,0.1 777.9,133.026658 777.9,297 C777.9,460.973342 644.973342,593.9 481,593.9 C317.026658,593.9 184.1,460.973342 184.1,297 C184.1,133.026658 317.026658,0.1 481,0.1 Z M469,110.6 L437.1,118.8 L450.4,171.1 C442,173.3 433.4,175 424.9,177.4 L411.6,125.4 L379.7,133.6 L393.2,186 C386.3,187.9 328.9,202.7 328.9,202.7 L337.7,236.8 C337.7,236.8 361.1,230.3 360.9,230.8 C373.8,227.5 380,233.9 382.9,240 L420,383.6 C420.5,387.8 419.8,394.9 410.7,397.3 C411.2,397.6 387.5,403.3 387.5,403.3 L391,443 C391,443 447.9,428.5 455.4,426.6 L469.1,479.6 L501,471.4 L487.3,418 C496.1,415.9 504.6,413.8 512.9,411.7 L526.5,464.8 L558.4,456.6 L544.7,403.7 C593.8,391.8 628.5,360.8 621.3,313.5 C616.8,285 585.6,261.5 559.7,258.9 C575.7,244.7 583.8,224 573.9,197.1 C558.9,163.1 524.6,156 482.5,163 L469,110.6 Z M558.6,322 C564.9,368.9 499.8,374.6 478.2,380.2 L459.5,310 C481.1,304.5 547.9,280.7 558.6,322 Z M519.3,226.6 C526,268.3 470.3,273.1 452.3,277.8 L435.2,214.2 C453.3,209.5 505.6,187.9 519.3,226.6 Z"/></g></g></svg>