<svg width="1440" height="741" xmlns="http://www.w3.org/2000/svg"><defs><linearGradient x1="90.745%" y1="96.433%" x2="16.02%" y2="25.311%" id="a"><stop stop-color="#6D7278" offset="0%"/><stop stop-color="#0AC18E" offset="100%"/></linearGradient><linearGradient x1="86.448%" y1="94.526%" x2="18.372%" y2="24.993%" id="b"><stop stop-color="#223543" offset="0%"/><stop offset="100%"/></linearGradient></defs><g fill="none" fill-rule="evenodd"><path d="M152.697-17.205l1170.437-565.601c49.47-23.906 108.962-3.422 133.228 45.873l277.18 563.067c24.392 49.55 3.997 109.492-45.553 133.884l-.593.29-1170.04 566.407c-49.479 23.952-109.013 3.476-133.291-45.843L106.489 116.999c-24.392-49.55-3.997-109.492 45.553-133.884l.655-.32z" fill="url(#a)"/><path d="M48.698-90.1L1271.6-531.26c51.742-18.665 108.844 7.962 127.806 59.596l216.043 588.32c19.038 51.843-7.556 109.304-59.4 128.342l-.472.172L332.984 687.17c-51.754 18.71-108.9-7.912-127.87-59.571L-11.238 38.438c-19.038-51.843 7.556-109.304 59.4-128.342l.536-.195z" fill="url(#b)" transform="rotate(-1 802.093 78)"/></g></svg>