<?xml version="1.0" encoding="UTF-8"?>
<svg width="204px" height="33px" viewBox="0 0 204 33" version="1.1" xmlns="http://www.w3.org/2000/svg" xmlns:xlink="http://www.w3.org/1999/xlink">
    <title>kraken</title>
    <g id="Page-1" stroke="none" stroke-width="1" fill="none" fill-rule="evenodd">
        <g id="kraken" fill="#5741D9" fill-rule="nonzero">
            <path d="M19.2,0.4 C22.7,0.2 26.3,0.9 29.5,2.5 C34.2,4.8 37.9,9 39.7,13.8 C40.5,16 40.9,18.2 40.9,20.6 L40.9,29.1 C40.9,29.4 40.9,29.8 40.8,30.2 C40.6,31 40,31.8 39.2,32.2 C38.6,32.5 38,32.5 37.4,32.4 C36.1,32.2 35.1,30.9 35.1,29.6 C35.1,27 35.1,24.3 35.1,21.7 C35.1,21 35.1,20.1 34.7,19.5 C34.1,18.3 32.4,17.7 31.2,18.2 C30.1,18.6 29.3,19.7 29.3,20.8 C29.3,23.5 29.3,26.2 29.3,28.8 C29.3,29.3 29.3,29.8 29.2,30.3 C28.9,31.3 28.1,32 27.2,32.3 C25.9,32.6 24.5,32.1 23.9,30.9 C23.5,30.2 23.5,29.4 23.5,28.6 C23.5,25.9 23.5,23.3 23.5,20.6 C23.5,19.2 22.3,18 21,17.9 C20.1,17.8 19.2,18.1 18.6,18.7 C18,19.2 17.7,20 17.7,20.8 L17.7,28.6 C17.7,29.2 17.8,29.9 17.5,30.5 C17.1,31.6 16,32.4 14.8,32.4 C13.6,32.5 12.4,31.6 12,30.5 C11.8,29.9 11.8,29.3 11.8,28.7 C11.8,26 11.8,23.3 11.8,20.7 C11.8,19.4 10.7,18.2 9.5,17.9 C8.3,17.7 7,18.2 6.4,19.3 C6.2,19.7 6,20.3 6,20.8 L6,29.5 C6,30.3 5.6,31.2 5,31.7 C4,32.5 2.4,32.6 1.4,31.8 C0.7,31.3 0.2,30.4 0.2,29.5 L0.2,20.7 C0.2,17.4 1,14 2.6,11.1 C3.9,8.7 5.7,6.6 7.8,4.9 C11,2.2 15.1,0.7 19.2,0.4 L19.2,0.4 Z" id="_x23_0da8ffff_2_"></path>
            <path d="M98.6,10.6 L94.2,10.6 C94.4,7.5 95,4.7 97.8,3 C100.6,1.3 103.7,0.9 106.9,1.1 C108.6,1.2 110.4,1.6 112,2.4 C114.8,3.7 116.2,5.9 116.2,9 C116.2,14.5 116.2,19.9 116.2,25.4 C116.2,27.4 116.6,27.8 118.6,27.6 C118.8,27.6 119,27.5 119.2,27.5 C119.2,27.6 119.2,27.7 119.2,27.8 L119.2,31 C117.6,31.5 116,31.7 114.4,31.3 C113.2,31 112.5,30.1 112.1,29 C111.9,28.4 111.8,27.8 111.6,27.2 C111.4,27.4 111.3,27.6 111.1,27.7 C107.6,31.2 103.5,32.7 98.6,31.5 C95.1,30.6 92.8,27.5 92.7,23.9 C92.7,22.7 92.8,21.6 93,20.5 C93.6,17.9 95.5,16.4 97.8,15.3 C99.4,14.6 101.2,14.3 103,14.1 C105.1,13.8 107.1,13.6 109.2,13.3 C110.6,13.1 111.3,12.3 111.5,11 C111.9,8.2 110.7,6.3 108,5.6 C106.4,5.2 104.7,5.1 103,5.4 C100.6,5.8 99.2,7.2 98.7,9.6 C98.7,9.9 98.6,10.3 98.6,10.6 L98.6,10.6 Z M111.6,16.1 C109.6,17.2 107.6,17.5 105.6,17.8 C103.9,18.1 102.2,18.3 100.6,18.8 C98.5,19.5 97.5,21.3 97.7,23.7 C97.9,25.7 99.2,27.3 101.3,27.6 C104.6,28.1 107.5,27.2 109.8,24.8 C110.5,24.1 111,23.1 111.2,22.1 C111.5,20.1 111.4,18.2 111.6,16.1 Z M174.5,21.8 C174.4,22.3 174.3,22.7 174.2,23.1 C172.3,28.9 168.4,31.4 163.7,31.9 C155.6,32.8 150.9,27.5 149.7,21.9 C148.7,17.4 148.9,13 150.9,8.8 C152.8,4.8 155.8,2.2 160.2,1.4 C165.5,0.4 173.1,3.1 174.3,11.4 C174.6,13.5 174.7,15.7 174.9,18 L154.3,18 C154.5,21.1 154.9,23.9 157.2,26.1 C158.1,27 159.3,27.5 160.6,27.7 C164.8,28.4 168.2,26.4 169.6,22.4 C169.7,22 169.9,21.8 170.4,21.9 C171.7,21.8 173,21.8 174.5,21.8 L174.5,21.8 Z M154.5,14 L169.9,14 C169.7,12.2 169.4,10.5 168.6,9 C167.8,7.5 166.6,6.4 165,5.9 C159.7,4 154.2,8.2 154.5,14 Z M185.6,30.9 L180.9,30.9 L180.9,1.7 L185.3,1.7 L185.3,5.8 C185.6,5.4 185.8,5.2 186,5 C189.2,1.4 193.2,0.4 197.7,1.5 C200.9,2.3 202.6,4.5 203.2,7.6 C203.4,8.9 203.6,10.2 203.6,11.5 C203.6,17.7 203.6,24 203.6,30.2 C203.6,30.4 203.6,30.5 203.6,30.7 L199,30.7 L199,29.9 C199,24.1 199,18.2 199,12.4 C199,11.1 198.8,9.8 198.4,8.5 C197.8,6.5 196.2,5.4 194,5.3 C190.1,5.2 187,7.2 186.1,10.7 C185.8,12 185.7,13.3 185.7,14.6 C185.7,19.7 185.7,24.8 185.7,29.9 L185.7,30.9 L185.6,30.9 Z M123.8,1.7 L128.3,1.7 L128.3,14.1 C128.6,13.8 128.7,13.7 128.9,13.5 C132.6,9.7 136.3,5.9 140,2.2 C140.3,1.9 140.6,1.7 141.1,1.7 C142.8,1.7 144.6,1.7 146.5,1.7 C146.2,2 146.1,2.1 145.9,2.3 C142.6,5.6 139.4,8.9 136.1,12.1 C135.7,12.5 135.7,12.7 136,13.1 C139.6,18.8 143.1,24.4 146.6,30.1 C146.7,30.3 146.8,30.5 147,30.8 C146.8,30.8 146.6,30.8 146.4,30.8 C144.8,30.8 143.2,30.8 141.5,30.8 C141.1,30.8 140.9,30.6 140.6,30.3 C137.9,25.8 135.2,21.2 132.5,16.6 C132.4,16.4 132.3,16.2 132.1,16 C130.8,17.3 129.6,18.4 128.4,19.7 C128.2,19.9 128.2,20.2 128.2,20.4 C128.2,23.6 128.2,26.8 128.2,30 L128.2,30.8 C127.3,30.8 126.4,30.8 125.6,30.8 C125,30.8 124.1,31 123.8,30.6 C123.5,30.3 123.7,29.4 123.7,28.8 L123.7,2.5 C123.8,2.4 123.8,2.1 123.8,1.7 Z M71.7,1.7 C68,5.3 64.5,8.9 60.9,12.5 C64.8,18.7 68.5,24.7 72.4,30.9 C72.1,30.9 71.9,30.9 71.7,30.9 C70.1,30.9 68.5,30.9 67,30.9 C66.6,30.9 66.3,30.7 66,30.4 C63.3,25.9 60.6,21.3 57.9,16.7 C57.8,16.5 57.7,16.3 57.5,16.1 C56.8,16.8 56.2,17.6 55.5,18.1 C54,19.3 53.5,20.7 53.6,22.6 C53.8,25.1 53.6,27.6 53.6,30.1 L53.6,30.9 L49.1,30.9 L49.1,1.7 L53.6,1.7 L53.6,13.9 C53.7,14 53.8,14 53.9,14.1 C54,13.9 54.1,13.7 54.2,13.5 C57.9,9.7 61.6,6 65.2,2.2 C65.5,1.9 65.8,1.7 66.4,1.7 C67.9,1.7 69.5,1.7 71,1.7 C71.2,1.7 71.4,1.7 71.7,1.7 L71.7,1.7 Z M80.7,6.6 C83,3.3 85.4,0.5 89.9,1.3 L89.9,6.3 C88.7,6.4 87.5,6.3 86.4,6.6 C83.7,7.2 81.5,9.7 81.1,12.7 C81,13.3 81,13.9 81,14.5 C81,19.7 81,24.9 81,30.1 L81,30.9 L76.4,30.9 L76.4,1.8 L80.8,1.8 C80.7,3.3 80.7,4.9 80.7,6.6 L80.7,6.6 Z" id="Shape"></path>
        </g>
    </g>
</svg>